<mxfile host="app.diagrams.net" modified="2021-01-20T09:38:57.770Z" agent="5.0 (Windows NT 10.0; Win64; x64) AppleWebKit/537.36 (KHTML, like Gecko) Chrome/87.0.4280.141 Safari/537.36" etag="Ir7orCE8yoDfhmipnby7" version="14.2.4" type="github">
  <diagram id="1D213XxCmfsHSZAnBF6V" name="Page-1">
    <mxGraphModel dx="782" dy="403" grid="1" gridSize="10" guides="1" tooltips="1" connect="1" arrows="1" fold="1" page="1" pageScale="1" pageWidth="850" pageHeight="1100" math="0" shadow="0">
      <root>
        <mxCell id="0" />
        <mxCell id="1" parent="0" />
        <mxCell id="sF9vPOQDG-tCfjTUJDpf-11" value="" style="rounded=1;whiteSpace=wrap;html=1;rotation=90;dashed=1;" vertex="1" parent="1">
          <mxGeometry x="837.5" y="191.25" width="415" height="182.5" as="geometry" />
        </mxCell>
        <mxCell id="sF9vPOQDG-tCfjTUJDpf-1" value="" style="shape=image;verticalLabelPosition=bottom;labelBackgroundColor=#ffffff;verticalAlign=top;aspect=fixed;imageAspect=0;image=data:image/png,iVBORw0KGgoAAAANSUhEUgAAAqYAAAHYCAYAAACfuyqzAAAgAElEQVR4AeydB5gUVbr+2XD37t79r3r37r3rrrrmdXdds6trBBUDRkRRYPIMUXJQzAQHUJCkCEgGGXIwkcSAgSEZUDIoOSiSBZE07/95T/Xprq6u7q7qrp6p7v7qeYqqOnXie5qeX3/nO+dUgxyigCggCogCySlQUYHDE6di52XXYfddD6Ji777w/CoqULFnb3iYPIkCooAoIApEKFAtIkQCRAFRQBQQBZwrcKICh4aOwnfnXozdd9cNAWgFFKAenjgNh8dPRsXuPc7zlJiigCggCmSpAgKmWdrx0mxRQBTwQIHjx7G/w1MGlNJSGrCK0mJ6sO8rClSPlC8CKio8KEyyEAVEAVEg8xUQMM38PpYWigKiQAoUIHzurV+koHRf41YGlFZU4Mj8RdhV/Q7sqVcUOaSfgnpIlqKAKCAKZJICAqaZ1JvSFlFAFKgcBU6cUL6kHL4nlOLECWUVPTxpmgLV/e2fMsIqpzZSiiggCogCGaOAgGnGdKU0RBQQBSpLgYN9BygA3XXj7UGr6PGNW4JhClQrqzJSjiggCogCGaSAgGkGdaY0RRQQBSpBgRMVapie1lJaSPXxQ5ceCkwJrXKIAqKAKCAKJKaAgGliukkqUUAUyFYFTGB6fNMWQ4WKEKwSUOUQBUQBUUAUSEwBAdPEdJNUooAokK0KVFRAD+UfW77SUKGiIjg7n2uZHt+4OVvVkXaLAqKAKJCUAgKmSckniUUBUSAbFeCM/J2XXqsAVbefs/E5vB82IUq/lKsoIAqIAqKAIwUETB3JJJFEAVFAFAhX4Mj8hQpOK3YHdnQ6UaFm6Gs4/WnW3PAE8iQKiAKigCgQVwEB07gSSQRRQBQQBWwU4DakE6aGlouCsdMTZ+oTTmUSlI1mEiQKiAKiQBwFBEzjCCSvRQFRQBSIpcDhCVNgto4eGjZagal5xn6s9PJOFBAFRAFRIKSAgGlIC7kTBUQBUSCmAtxZlOcJyw6jRz5ZgIrde1Ragil3fbJby/RERQUWr9mDJWv34IQ1k5gly0tRQBQQBbJDAQHT7OhnaaUoIAokqABBdOv3P2Ls+1vwyswNWL5pP3bvPxqeGyPxOHECB3u/HFx0PzwSsHHnj1i4eg8GzVqPGk98gjcWblega40nz6KAKCAKZKsCAqbZ2vPSblFAFIirwHtLv0f9Fz/FlW3nYcWmH+JC5IkTJ1Bx7ISKd/wEsO/QUSxZtwflq2ghDRVHju05ba3Kl9ArhyggCogCooChgICpfBJEAVFAFLBRgDbQntPWKcsmwbTBi5+i/fDlGDxrg+ncGLzvNe1rNH5lKRoPWIp7nluIhgOWou2w5Xjt/S0gpFoPDukzX17lEAVEAVFAFDAUEDCVT4IoIAqIAlEUIE/SL5RWTQLkojV7MHDWBgyaaZwDZ63H2HmbVTjf89x38KhKQ6uoHuG3y54WUw7nM74cooAoIAqIAoYCAqbySRAFRAFRwIEChMxlmw/AMu/JQcrIKKs2H1DWUuVjGvlaQkQBUUAUyFoFBEyztuul4aKAKOBUATWsP32dGqJftfkHZRGlJZV+owRWTrA/fqJChW/Z9aPyK+WQ/+sLd0T4lr6xaDvu6boQ7y3dGdOi6rRuEk8UEAVEgUxSQMA0k3pT2iIKiAIpU+CNhTsUUNIv1MnJYfp2w5Zjwerdqk57Dx7FwJnr1clJUXKIAqKAKCAKRCogYBqpiYSIAqKAKGCrAK2iHIanrymXfLKeHJqnnyl9UmlRNfuY6jDbjCVQFBAFRAFRQCkgYCofBFFAFBAFHCpA0Nz7g/+snRs2bMCoUaOwd+9e8L5z587qqu8/+OAD1UKG292PHDkSPHlEu2c6pucR7V6Xx6vdvV3Z1jrFqwffJ1sP1o2HtWy7+kXTw1qPefPmqTzlH1FAFEhOAQHT5PST1KKAKJAlChBKOQufS0G9/+X3yo+UQ/Lat/TY8RNYteWAspjSv/SNReH+pamQafr06SrbTp06oVq1agoYCVfWe77nwXC7++rVq4Mnj2j3ugzGiXZvVzbDdLhd2dY6xasH3zNNMvVgfXhYy7arXzQ97Oqh89XgqwqRf0QBUcCVAgKmruSSyKKAKJDNCtDPlL6jTnxMGafn1HVhk5+81I5gdMopp6gsCUQFBQVBKykBS1stea+BKdp9LKsg3/FgHhrcot2zTGvZburBtLq8WHVKth4aHJlPMtroevAHwiWXXKJ04j37Rf9oUIHyjyggCjhWQMDUsVQSURQQBbJFAT1kz1n10xdux4KVe4P+otzj/t2lO9XC+o1eXopGA0InJzvRqsoZ9xzyN/uYWrU7Zt4KyvoyxvMXX3yh3vbt21dZNzVkxUgirypRAQI1LbG6nyqxaClKFMgIBQRMM6IbpRGigCjghQIESU5SerZsNer3+hSL1uzF8RgZM771jBFdveLSU3sPHsMrM9bHBFe7fDT0CIzaqeOfMN0/7K/CwkL/VExqIgqkgQICpmnQSVJFUUAUqBwFOJNeD9VzC9KyeVuU36ieYa8g1EFVzLCq1jutqFAz+cfO26J2jRrzwWZw+SjGc3MQdE4++WSxxrkRrQrj3nfffcp6qkG1CqsiRYsCaaOAgGnadJVUVBQQBVKtADmRS0HRN5RD9LSaan/S+i9+isYDlqqz17Sv1VA+JzlZz05lq4PxGr9i5MEhf1pIuZSUAaoBy+zYVQpQ47WLs+158hDIiaeWf96zz/hjQg5RQBRwroCAqXOtJKYoIApkkQJ0AT2uzgps2fmjgkqCpbGG6QblS2q3jinfB9cyPVGh8mBenMH//lc70WvaOhBUny1bhX0HnS09xUk2l156aRBOs6gbMqKpBFQZ0s+IrpRGVIICAqaVILIUIQqIAumrAK2oG787hNcXbMc7X3ynhuI5KYrwuXht6FwSuOc7WlEHzdqA9sOXQ1tNG768NDgxihOo3Azjc8a3nvWdvkpmb805UY0TosR6mr2fAWm5cwUETJ1rJTFFAVEgixXQfqPHKyqw5fsfsWitYT2lhdR8KmANQCstonro3g2IWmWmxU2G8K2qpM8z+69169Zi8U6fLpOaVqECAqZVKL4ULQqIAqJAPAW4o5OXx65du/Dxxx9j2rRpmDx5spwONejXrx/mzJmDdevWedkdkpcoIApYFBAwtQgij6KAKJDlClRU4Mj8hThavtBYC6oK5eBamBwC5lCwF8e7776LHj16YNasWfjyyy+xfPlyOR1q8OabbyqgHzp0KMaMGYPdu3e77hL6mXrVl64LlwSiQJooIGCaJh0l1RQFRIFKUuDECXx37sXqTNm2TQ6bwt2DzjzzTE+G8QlW48ePx6FDhxyWLtGiKTB//nzQgrpnz55oUWzD2ZfcsUsOUUAUiK6AgGl0beSNKCAKZKMCPgJTr+RfvHgxRowY4VV2kg+ATz75BK+99porLTj5SXyFXUkmkbNQAQHTLOx0abIoIArEUODYsZDF9NgxIyJnLp04gWPLV+LogkXqPjit/vhx49m6xSifdVggfcWefSr98U1bgBMVwLFjqPj2O1Ts3WdboXnz5tmGuw3s3bs3tm7d6jaZxI+jwPDhw7Fy5co4seS1KCAKuFFAwNSNWhJXFBAFMl8Bi8X0+JZt2Fu/KAirHObfedl1ODxxmvJB/aFzd/Xu8IQpQW0Imoy3+64HVZyDfQeoNNpFgNd9TVqjYvceVGzfgeMbNwfTmm/oX8rZ3Mkca9aswejRo5PJQtJGUeDzzz/HlCmhfo8SLRhMayn9TOk7LIcoIArYKyBgaq+LhIoCokC2KmAB04r9B3Bo2GgcKV8EWjp/mj0XOy+9VoEmV8/nswLNxq2CFlLGZdgPXXooMCW0Mh4trjz3d3hKvWe+sQ6CKRfXT+ag1fX9999PJgtJG0UBToDq379/lLeRwR988IGazMarHKKAKGCvgICpvS4SKgqIAtmqgAVM7WTY3/5JBZYEUBw/rkCVIMqheR60kPL5p1lz7ZIryOX7g31eDsKsbUQPAjnczElUcnivwMGDB9GhQwfHGQuYOpZKImaxAgKmWdz50nRRQBSwUcAOTOlfumwFDvZ9BQf7DMDeBsUhMK2oCFpAf5r1jrKQ7mvcSr2nT6k6KiqUH+nhydNVHvs7PK3eM6+gH6pNVbwImjFjBjj5SQ7vFThy5Ai6d+/uOGMBU8dSScQsVkDANIs7X5ouCogCNgqYwZSTk/buC/qY7qlXpCB0T30TmAI4PHGqAs397Z8KWlCVfyknOFVUBN/vuvF26DyUxbTvAPXephYqyIuhfAHTaOomH+4WTLkDFOGUVzlEAVHAXgEBU3tdJFQUEAWyVQEzmJ44ofxE1bD87LlBiNRD9WooH1DwyjicFEWrKe+1/yj9UvlMKyqOnVCqah9U5hOc3W+jt4CpjSg+CnILpj6qulRFFPCtAgKmvu0aqZgoIApUiQLHjyuQJEzSf5QWTt6rJZ5YoYqKIKxqMOVw/L5GLVU8Hb9ij2EV4y5STK8mQgUa9NNMA14VmOolpVLUWLGYpkhYAG7BlLPxa9SoIbPyU9clknMGKCBgmgGdKE0QBUQBDxUwg+mxYzjYf6ACSy4ZRR9TXjkrn7AZBFNAWUgZxpOz7rUlVFtMaU1l+h+6Ph9cOiqexdSLVgmYeqGifR5uwVR8TO11lFBRwKyAgKlZDbkXBUQBUSAwlE9/UFpCK/btxw/PvQA+776rrppxTysoLaOcEKUPAijDeB75ZKEOVoDK2fkMZx6EVqbb/+jTMK99GkoQupOh/JAWfrxzC6biY+rHXpQ6+U0BAVO/9YjURxQQBapUAfqGBofeuWMTj8DOTWq3JgbxWZ/m2uowXq0Hwzhsb/fOGjfwLGAaRRifBLsFU59UW6ohCvhaAQFTX3ePVE4UEAUqU4HDk6apYXZaNrWPaGWWn4qyZCg/FaoaeboFU/ExTV1fSM6Zo4CAaeb0pbREFBAFklTgp5lz1FB7cKJTkvn5IbmAaep6wS2Yio9p6vpCcs4cBQRMM6cvpSWigCjghQIuhtq9KC5WHjKUH0udqn/nFkzFx7Tq+0xq4H8FBEz930dSQ1FAFMhSBQRM/d3xbsHU362R2okC/lBAwNQf/SC1EAVEAVEgJQrIUH5KZFWZugVT8TFNXV9IzpmjgIBp5vSltEQUEAVEgQgFBEwjJPEswC2Yio+pZ9JLRhmsgIBpBneuNE0UEAXSWwEZyvd3/7kFU/Ex9Xd/Su38oYCAqT/6QWohCogCokCEAgKmEZL4KsAtmPqq8lIZUcCnCgiY+rRjpFqigCggCnihgAzle6GifR5uwVR8TO11lFBRwKyAgKlZDbkXBUQBUSDDFBAwTV2HugVT8TFNXV9IzpmjgIBp5vSltEQUEAUyTAEZyvd3h7oFU/Ex9Xd/Su38oYCAqT/6QWohCogCokCEAgKmEZL4KsAtmPqq8lIZUcCnCgiY+rRjpFqigCggCnihgAzle6GifR5uwVR8TO11lFBRwKyAgKlZDbkXBUQBUSDDFBAwTV2HugVT8TFNXV9IzpmjgIBp5vSltEQUEAUyTAEZyvd3h7oFU/Ex9Xd/Su38oYCAqT/6QWohCogCokCEAgKmEZL4KsAtmPqq8lIZUcCnCgiY+rRjpFqigCggCnihgAzle6GifR5uwVR8TO11lFBRwKyAgKlZDbkXBUQBUSDDFBAwTV2HugVT8TFNXV9IzpmjgIBp5vSltEQUEAUyTAEZyvd3h7oFU/Ex9Xd/Su38oYCAqT/6QWohCogCokCEAgKmEZL4KsAtmPqq8lIZUcCnCgiY+rRjpFqigCggCnihgAzle6GifR5uwVR8TO11lFBRwKyAgKlZDbkXBUQBUSDDFBAwTV2HugVT8TFNXV9IzpmjgIBp5vSltEQUEAUyTAEZyvd3h7oFU/Ex9Xd/Su38oYCAqT/6QWohCogCokCEApUBpseOHcOsWbNQo0YNXHzxxTjttNPwm9/8Biw7G89f/epXOOuss3DNNdegXbt2mDBhQkS/6AC3YKrTyVUUEAWiKyBgGl0beSMKiAKiQNorEG8on0D65z//GYWFhRg6dCjoB0nLXrYeP/30E77++mtw2L1z5864/fbbcdVVV2Hu3LkRkrgFU/ExjZBQAkSBCAUETCMkkQBRQBQQBTJHgVhgOmnSJFx77bXYtm1b5jQ4BS0ZOXIkrrjiioic3YKp+JhGSCgBokCEAgKmEZJIgCggCogC/lAg1UP5tAjylCO+AuwL6+EWTMXH1KqgPIsCkQpE/k+LjCMhooAoIAqIAlWggIBpFYgepUgvwDRK1hIsCogCJgUETE1iyK0oIAqIApmmQKyhfLGYOu9tL8BUfEyd6y0xs1cBAdPs7XtpuSggCmSBAm7BdMe4Ovaz8euWYUfSeu1AWd1qqDMu+ZySrkq0DLaUoU61UpRb3nsBpuJjahFVHkUBGwUETG1EkSBRQBQQBfygQFUM5SswjYDQcpRW8wIofQ6mCkq5TFZqwFR8TP3wv0rq4HcFBEz93kNSP1FAFMhaBVIJpj8dBpqVDEfOA1OxZkVIYnswBaKFh1Km9522FJd2LU0ZmKa3QlJ7UaByFBAwrRydpRRRQBQQBapEAQ7lvzf3c0x5DejcDnjgJuCiU4HTfwmcWg3413nrwuoVDUAjww0rKuGZZ+mCQDbK6lgHZVtC2ZZ3rYZqXTk4HmkxVe/0Yv4qDoAFpahmstpay1bP5rg6fbXwckM1COQZZgkNr8uOBeWGqwLLDotn5MI2Wg+3s/LFx9SqoDyLApEKRP5Pi4wjIaKAKCAKiAJppMDwAUCTh4HbrwTOP/mIAtAzfw384w/AlWcCt1wCVL8QOONXR1Drho/DWmaFQOOldSg/HOoQBqOWdzDSGuAa/i68LPM7ptGQyfA6qFPX/KxB2BwvEmjDGhZWDyC8zqaYKQRT8TE16Sy3okAUBQRMowgjwaKAKCAKVLUCiQ7lEzzP/i/g3+cC/zrnAGpefgD3V0fYyXfnnnRADeWb26lgMWiBNG1Lqi2UjGwzQYiWTz2pKQw4GTdo/TTDp3EftLQy36Cl1PyuHKV1y1A+ro5hlQ0r24BewxprboX9fchyGyjL3CadJIVgKj6mWmS5igLRFRAwja6NvBEFRAFRoEoVSBRM9+81rKJ3/huoftFuWzCl9fRvf9iFVo8MDGtjGFTyjQI1ba0MRFVhJmjVIBsEvZAlk/lpYA0fyg9ApU4bvBoTj1Q9mB/LsrsGa23JJ1CHMBcBDcYmqOX7MCjW+aUQTHURchUFRIHoCgiYRtdG3ogCooAokLYKaDi95q/7wsD0hr8D1/4VOO2XwKV/2RSx81MEmNIzVC0hZZqpbgK8aAIZFtRyNQwf8jeNYzE1ZxawtAYtpRyKr1uGsmhAybSqXlGAU+WtLbGEWVN7zOWmEEzFx9QstNyLAvYKCJja6yKhooAoIAqkvQKE03+dvR8P3LIHt14O/ON/jCH+K84A6HN62zULHIGptnSGhszNgEmZDKtlyDKqLa160pOWMjydFYKVlVNbN1WeVt9SPpuAUoGo2ZrLepifdbmhqwHZIbeD0JvAXQrBVHxMI9SWAFEgQgEB0whJJEAUEAVEAX8okOhQvrn2o4Z/gAtOOYbTfgFcfgbA4f3rLwAu+iNQ777XHYJpCDRD8Gk/hB4q23gfPlweDqaMGzbkbrFiGu9CIKqeg+4CgZIUSIbcCkL1C9Uk7C4CZsPeBlwXQmXqt17MyhcfU62mXEWB6AoImEbXRt6IAqKAKFClCiQLpsNfBi74759w/017cO5vgby7jQlQhFLCafPGQyLAtEob7OPCvQBTHzdPqiYK+EYBAVPfdIVURBQQBUQBbxR4dwZwz3XA3dcCzz72BRYvXozlXwB/PRmof4cxjH/n1cAzT5cKmDqU3AswFR9Th2JLtKxWQMA0q7tfGi8KiAKZpMC61UCLPODy04GXnwcOHQS4wD7BlAfh9PyTgb/8Cnj8ESgo7dy5cyZJkLK2eAGm4mOasu6RjDNIAQHTDOpMaYooIApklgJOh/KPHQV6dQJO/w8DONeuDOlgBlOGEk4faQCMHiRgGlIp/p0XYCo+pvF1lhiigICpfAZEAVFAFPCpAk7AdNIY4LoLgLx7gA/mRDbECqbmGLSWisXUrEj0ey/ANHru8kYUEAW0AgKmWgm5ZpQCmzdvxurVqzOqTdIYUcCswKJPgAa1jIX0xw41vwm/FzAN1yPRJy/AVHxME1Vf0mWTAgKm2dTbNm1dsukABn+8FaWzNuCJN75Gg5HL8dysDeqZ4St3HLRJ5e8gAmnDhg3xxhtv+LuiUjtRIAEFvt0OPNGCs+2BF54Bvv8udiYCprH1cfrWCzAVH1Onaku8bFZAwDSLe3/Moh0KRBuWrVLXnFEr1JVwylM/f7hub1qpJGCaVt0llY2hgHUo/9U+wN//B2hdCCxdEiOh6VUsMP3oo4/w+9//HosWLTKlkFuzAtu3b1fuDvfee685WN0fOXIE3bt3jwiPFiA+ptGUkXBRIKSAgGlIi6y7I3xq6KSVVAOp3dWP4hw6dAjz58/H559/HlY9P4Hprl27MGLEiGA9eS+HKOBUAQ2ms18Hal0FPHgzMGOa09RGvFhgyhjNmjXDSSedhNq1a6Nnz54YOXKkmslP6142nrNnz8awYcMUjNasWVNpU7duXezfvz9CeLdgGpGBBIgCokCEAgKmEZJkTwABlFbTQ0eOo9XkNUEw1ZZSDah89uOQPofq7Ybs/QSm/DSxnqwTIZp/+OUQBZwqsOoroGk94JrzgCH9gOPHnaYMxYsHpoxJn2xOgmrZsiVycnJQq1Yt1KhRIyvP2267DYWFhXjiiSfw1ltvgRbTaIdbMBUf02hKSrgoEFJAwDSkRdbdafB0chUwTfzjQSil5ZRXnnKIAvEU+PFHoMeTwOm/BDq3Azatj5ci+nsnYBo9tbyJpYBbMBUf01hqyjtRwFBAwDSLPwlTvtiJKV98B/P1uZnrbS2nXoAph95pmYl1MI7TI1UW0zVr1iiQdFoPxo/XLqd5STxRYNww4OpzgEZ1gV9VuxGdOnVKShQB06Tki5nYLZiKj2lMOeWlKKAUEDDNkg/Czh+OBmff61n3dtfWk9cGwdRsSV2/42tgz8DQ+dMyR8px+LpXr15qyJ3D7jxbtWqFN998Myw9LYpdunSJOtTNIXCm1RZH/azz5FXPwmcc/ax9PJk3w3i1+qSyIgRi+n+a8+vYsaNtXMZ/9913VV7W+AyXQxRIRIH5HwAP1QS4Vejk14wctI9pIvnpNLNmzcLChQv1o1w9VOCnn37C888/72GOkpUoIAoImGbBZ4BQ2rBsZRA47XxIzRBq937jjuXAt+2N87sOxvXI1zHV00A6fvz4IFASGjUkapBkJhomo/lgahDVYEoLpQZJXhlOCDXnRbAkOPI9AXnu3LnKh45hOh/GJ5QyLv3rGEcPu+syzfVkuYzLk3kyLtPznumZtx34qorJP6KAjQJbNwGPNgYuPhXo3w04EDnHxiaV86Dy8nIQTuXwXoFt27Zh8ODBjjMWH1PHUknELFZAwDQLOn/Qx1uDUGoGUDf33+5aGQJTDaj7x8dUj5BmB5oEOb6j5ZT3PNyCKdPEG8onAGtY1RUlQFrrNWDAAFug1MDK+HqoPlqZ5voQhOUQBZwoMOAF4PyTgMeaAKucDUI4yTYsztatW8HPuBzeKzBv3jxX0C8+pt73geSYeQoImGZen0a0qFVgeN7OEmqG02jvuc4pOHSvLaUaTHc+HVGWOcAKgOZ3GgYJijxSAaZmS6e5bNaLFk8eBFfzszke72lB5XsNm7HANF4brHnLc/Yq8NZkoOalQM6dwHszo+vgxVA+c+cSULTWyeGdAhzG56hQrFn71tLEx9SqiDyLApEKCJhGapJxIWb4TORerXVK/1INpObr8d1R9YoFplbAiwd1elid8fRhzUOH67xigSnrxkPHtbPs2r2PVqZdXFWA/CMKmBT46jOg5AGgxj+BMQ5GgL0C040bN6qF4N1AlKnacmujwKRJkzBnzhybNxIkCogCySggYJqMemmQduPuw8EdnDSUmi2jj7/xtVrL1Do7Xz9v3r0X2D8hHErNltMYfqZOwFQPMcYDxFSBqd3Qvrlbdb00yAqYmtWRe6cK0G+066PAOb81loHitqKVfXz22Wdqos6yZSnyGajsBlVReTt37sS4ceMwdepU1zUQH1PXkkmCLFRAwDTDO50TnzSQWq/KEnroo9BMe/Ose97v6h0OpGZLqb5PEkz1ELkGwGiWy1SBabxyre8FTDP8P0wKmjd6EHD5GUCLXODzKp4c/80332D48OHo378/Jk6ciClTpsjpUIN+/fop7V544QV8/PHHCX1SxMc0IdkkUZYpIGCaBR2ugdRsKeWEKBx4PRw8zZZQgqeT5wSH8jlTn1ZIPdxuBUBrt6QKTDmpifXQPqfWcjnDnu+1ZVfA1KqQPEdTYN47wP3VjZM+pYkcXg3lW8um1W/FihWg9VROZxrw/z5dIpI5xMc0GfUkbbYoIGCaBT3N4XoNp/qqFszXVs9Er9+XxlSPQBfNAsoZ+XxPIOWhAZEz6e2OVIEpy9LLV+mZ9+byadFlPfUSUAKmZnXk3k6Bjd8AbYqAK88EBvcGjhyxi+UsLFVg6qx0iSUKiAKiQOUrIGBa+ZpXeonc2UkDKa+0nIaBqRPLqBledfyDsR3/CXQEUD3zXjdcw54VWvU6oNZF6pneCrLMS1sztTuAzl9bX7U1VofrK+vFUx86PgFVL1/Fd3b+pwKmWjW52inQtxQ46zfAM62BDevsYkhYNisgPqbZ3PvSdqcKCJg6VSqN4x06chxPWKymYWBqhk6n9zufAip+jKkK4U8vRs97Lq2iAdMKgcyIFksNp0yn4zOMz8xDW1h1wXrZKcKpfqdB0ymYMi9CqC6H5WorKvRpPp0AACAASURBVOHZDKsCplp5uZoVmDYOqH4hUFwH+OQ98xu5FwVCCoiPaUgLuRMFoikgYBpNmQwLJ5zScqpn23NSlK0P6e5XAFpCf5gT+xrDt1RLR5DUVlFaNwl1PK0WVB2fV0Ig1w7VcTVsap9U/WxOwzDG1++YB++ti+vrNHyn4+owXhnfXLbd0D7jRMtbl2uXzlyO3GeOAp8tBPLvBW67Apg4yvt2yVC+95pWZY7iY1qV6kvZ6aKAgGm69FQq6mlnHf2+m/0s/WPbXNfADKauE1sSaB9TS7A8igJVosCeXcAzbYC//x7o0xXYtyc11RAwTY2ukqsoIAr4VwEBU//2TeprpsFU+4xan3f3Br57yrCsxlgWKlpFvQRTDq1zqF0OUaCqFRj2EnDRqUD7hsCKpVVdGyk/nRQQH9N06i2pa1UpIGBaVcr7oVwNonZXrmHKg1uR8n0VWkz1JCQO58shClSVAnPfBu6+Fqh3O/DOW1VVCyk3nRUQH9N07j2pe2UpIGBaWUr7sRxaRM1QaraccikoWkm51mmcZaGiNS0Ziyl9OWldMM/gN09CilamhIsCXiuwbrWxOP51fwVGvuJ17rHzk6H82Pqk21vxMU23HpP6VoUCAqZVobpfyqQVNN7uTnyfgLWUTeSMeT35yU2TCaWEWp7MI9ZkKTf5SlxRwI0Cx48DvZ4FzvgVUNoR2L7FTWpv4qYKTCsqKiBnYhqcOHHCm86VXEQBUcBWAQFTW1myLJDgyVn4akvSV4wrnxMEUrN6iVo5E01nLlvuRYFEFZg0GqCFtFl9YMn8RHPxVzqC6Jw5c8AtNQcPHqyWRKPvtpzuNKCvO7d1Xbt2resOFh9T15JJgixUQMA0CztdmiwKiAL2Ciz6GGhwB3DPtcDrE+zjpGvohAkT8Prrr2P//v3p2gTf1JvbuXbr1g0rV650VSfxMXUll0TOUgUETLO046XZooAoEFJg5w7giebAJX8GXukJHI69d0QoYYrvvBrKpztMWVlZimubXdmvW7cO/fv3d9Vo8TF1JZdEzlIFBEyztOOl2aKAKGAowP3suR7pky2Ar1f7SxWvwLR3797Yts39WsT+UsN/tZkyZQoWLFjgv4pJjUSBNFZAwDSNO0+qLgqIAokrMGs6cMe/gIJ7gQ/fSTwfv6dctWoVxowZ4/dqpmX91q9fj6FDhzquu/iYOpZKImaxAgKmWdz50nRRIBsVWLUMaPIwcNNFwLjhma/ArFmzZGWLFHZzjx49cPDgQUcliI+pI5kSjvTTTz+pvmB/yFl5GiTcYVESCphGEUaCRQFRILMU+Okw0P0J4LzfAb06Abu/93/7vBjKp7X0m2++8X9j07SGnKG/ceNGR7UXH1NHMiUciWCak5OTFWdJSQn69u2rVtro06cP2rVrh6Kioippe8IdFiWhgGkUYSRYFBAFMkeBsmHAVWcDbYqArz5Ln3Z5AaYDBw7Ezp0706fRaVbTiRMngrP05ah6BbIJTBs3bozXXnsNP/74I+hSwhU3uFIElzPLy8urVED1uucFTL1W1Of5ffbZZ3j11VeVzxktKXJG1+D999/HO++843iYzuddn5XVm/8BUPcW4IGbAPqUZuMxefJkcNMKOVKjACdALVu2zFHm4mPqSKaEI2UbmHKlDW74wDWKDx8+DK4UwTWKuTlNbm5upcFpwh0WJaGAaRRhMjH4vffeU476CxcuVEN7HN6TM7YGs2fPVpo59SHLxM9NOrZp2xagQ2PDSjrsJaCiIh1b4U2dX375ZQFTb6S0zcUNmIqPqa2EngVmK5hqAY8fP46vv/4abdu2RX5+voCpFkau/lSAH9ZevXrh2LFj/qygj2s1Y8YMcAKJHOmhwMvPG36kXToAW5y5/vm2YV4M5QuYprZ73YCp+Jimti+yHUxpPd20aRPat28vYJraj5rk7oUCHM779NNPvcgq6/Lgf/bOnTvjhx9+yLq2p1OD35wE3HIp0KgusPCjdKp59LoKmEbXxi9v3ICpX+qcqfUQMA2BaUFBgVhMM/WDngnt4jD0c889J9bSJDqTjuV0gZDDfwos+xwormOsSTpVNjeK6CCxmEZI4mmAGzAVH1NPpY/ITMBUwDTiQyEB/lTgq6++AmeOypG4AlykfOzYsYlnICk9V+DgAYDD9f/4A/BSD+CgGLRtNRYwtZXFs0A3YCo+pp7JbpuRgKmAqe0HQwL9pwD9I8vLy/1XsTSq0aFDh/DCCy+kUY0zu6qjBgGXnQ50bAasyeCVemQo3/+fYzdgKj6mqe1PAVMB09R+wiR3zxSgpW/t2rWe5ZetGXHy2IEDB7K1+b5oN7cOrX0j0OAO4P0smI8mYOqLj13MSrgB05gZycukFfACTLnMUmUutZTohgBcx1QvF6WFM09+Eh9TrYpcfakA1zX79ttvfVm3dKrUoEGDsH379nSqcsbUddN6oHURcP3fgNeGZEyzKqUhMpSfWpndgKn4mKa2LxIFU4Iod03q2LEjevfujZ49e6JVq1ZJLVSfm5eD/Ma5KG6Th8LmucgtSm5HKoJmixYt0LVrVzz++ONqp6dx48apdUy1qm7AlO1t06aNamunTp1U3okuMaXL9+oq65h6paSP83nppZewZ88eH9cwPao2YsQIx1sPpkeL0qOWfZ4DzvxP4PmngZ3y+8p1pwmYupbMVQI3YCo+pq6kdR3ZLZgSSLm1J7fzJJB++OGH2Lx5MzZs2IC5c+eie/fuaN68OdxYH3Pzc5DfKAfF7XLRvHcB2g4vQvMBhSh+Jg/5zXKRW5iDnFznkMqyWQdOYJ45cyZWr16NxYsXg1DKTWAIo/pwAqaFhYUKujkCOG/ePNVezkPhyOozzzyDpk2bugZyXb5XVwFTr5T0cT79+/cXMPWgfwimXCNOjspRYNo4oPqFQPNc4IvFlVOm30qRoXy/9UhkfdyAqfiYRurnZYgbMCWgaQsk+5CjYUePHlW7KBHwuNUnAZXD5U8++SSaNGkSe23QvBzkFjdAQcsGaNItB+3LCvD460XoOL0E7ScW45HhBWjcOx9FHfKQ1ygXuQWxAZXbinK4ntbRUaNGKSDl7k6sGxfS52o7/Dxx1yd9RANTAjitoWwDraNTp05VQHrkyJFge/fv349FixaBP2QJ6tw9yqkFVZfv1VXA1CslfZyPgKk3nSNg6o2O8XIhhObfA9x7PfD2lHixM/u9gKn/+9cNmPq/NeldQ6dgymHsDh06KOCjsSHaxjOEPgIqrZR05SLIEtbCfFBp/czPQV7jBih6+mG0LHsIHWY0wOMz8/H42waYdphUgpZjC9BsZB6aDy9A014FKGyRizwO71usp8ybVtJmzZqhX79+WL58ueNtse3AlPmxvS1btsTw4cPVbo9skxloda8zPedR0HJMlwHWwQmc6vReXQVMvVLSx/kImHrTOQKm3ugYLZe9e4BnWgOXnQa82heQTcqiKeUuXIby3enlNrYbMBUfU7fquovvBEwJfUOGDMHSpUtBKyGh1A7SdMl8R8vi7t271VrWHAIvLi424DQ3YCXt+DCajqyDVjPuR9s5dfHonAboqMH09RJ0mFyC1mWFaDIyV8Fpi1EFaDWsCI88X4iC5nnIyW0QXAyfVtIePXqolXR27dqlyiYwOjnswJRwOWDAgGB7tVU4Wn7Mg+3dsmUL3njjDTz99NPBukWbqBUtr0TDBUwTVS6N0gmYetNZAqbe6GiXy7D+wEV/BJ5pA2z8xi6GhCWqgIBposo5S+cGTMXH1JmmicZyAqYEP04GZlw74COI2oEqh89pTeSa1pwkpSyJeQ2Q26IeSkbURotZd6P1u7XRbq4FTKeXgBbT1mVFaDYqD41H5OCR0floNaYQLUcUoKRnA9QvrIcGuQ2UZfP555/H+vXrwSUKWaabwwqmrGOfPn2UlVS7ATjNj8BOcKdfazQg1eFO83QaT8DUqVJpHE/A1JvOEzD1RkdzLu/OAO6+Bii8D5j/gfmN3FMBGcr3/+fADZiKj2lq+9MJmHJyjxU8+UwI5CRhDu1v3bpVbUFtjUdY++6779Qwt5oQld8AuW3qIW/I/Xhk5j1oFQNM25QV4ZFReWg4rD6ajMhVcNpkRA7u63YXHi5+WIFpo0aNlE8r/UetZbN+hFX6wtJ6y7Za41jBlEP4o0ePVr6oVuXZFoI228s2MW9rfnzmRCsNoNGu1ryTfRYwTVbBNEgvYOpNJwmYeqMjc/lmDdA8B7j5EmDSGO/yzbScBEz936NuwNT/rUnvGjoFU2srOby9Y8cOzJkzBy+++CL69u2Ljz76SIGq2WpJmNu5c6eaIc/JUzkFOchtUx/5A+ui8eTaaPXO/VEtpgRTWkxLhtRDydD6KBlWHw+/XBu3d741CKa05o4fP175tZrryKF1lvvJJ5/glVdeUZOX1qxZo8DSDJN2YDpmzBjs27fPnJ2C2m3btmH2O7PxQp8XMGHKBCxbsUzFM+fH9nJznmhAqsPDMvfgQcDUAxH9noWAqTc9JGCavI50ler5LHD+SUDfUmB/+Pdl8gVIDhEKyFB+hCSeBrgBU/Ex9VT6iMwSAVOCGC3ZnBhEMNQz2LmO6euvvx4GiRpMOTFIg2l+2wYoHlwPxSProsXM+9H2HfuhfAWmI/NQ9OrDyB9UFzkDH8CdvW7DrZ1qxgVTQqmuH2frs2zO1ic0mkHSKZjSStr/5f5o3LYxSroVo/ixIjzR+Qks+XSJshwzH8I6y+WyVBpAo10jOiLJAAHTJAVMh+QCpt70koBpcjpOGg1cez7QrgRY+VVyeUlq5woImDrXKpGYbsBUfEwTUdh5mkTAlBBGAOOW0xz61vBFSOXmND/88EOwAhpMu3TpYqxtWpCD/HY5aDS0AUqG10PjCQ+i9awHwyc/BXxMzWBKS2ntfnfhthdqOrKYEiQ5CYlQyvoRnjmpaeLEiWF+sk7BlDP9u/TojIY9S9BoSAkaDWqIlp1bYM7cOcqaSt9SzsynJnR90JpEuwYF8uhGwNQjIf2cjYCpN70jYJqYjovnA/XvAB68BZj7dmJ5ZGsqGcr3f8+7AVPxMU1tfyYKpvSx5GL6ygqaYyx+T39PDpubt6G2ginXIi1on4PGIxqgePjDeOjVu1Ey+T50mF0/NCvfBkzrvnQv7nrxdtzR81bc2fUOPFxi+JhGG8rneqpPPPFEGCByTdJ4Oz8RtO2G8pctW4bO3TqhpFsRGr1agoYDStD0ySYYP3G88iklkHM5LWqgYTgalDLc60PA1GtFfZifgKk3nSJg6k7H778DHn8EuPocYNQgd2kltqGAgKn/PwluwNT/rUnvGlYJmHZogMaj6qHB4Nq47cWbUXvQbWj11sNxwbRWr1sVmHLyU72Semo902hgSnDmDo60khKeufg9QfXdd99NaCifu1sNGjIIbZ9tiybdG6GwQwGKmhWidZvWajMB1sPJ+qUaVr3+1AiYeq2oD/MTMPWmUwRMnes4qDdwwX8DpR2BHducp5OY3isgQ/nea2rO0Q2Yio+pWTnv752CqdUvM1GLaU5hA+R1qIeiUQ/gzr63okaPG3Fbn5tRMLY2HpuRh8ffCi2wbx7Kp8X09l41UfP5m1G7292o3zA2mHKpp2+++Sa4bSgnZ3E7Ua5zaj6cDuXrdUqnTZuGZ7s8i0eaE3gLwjcOCFiONXzGuprr4MW9gKkXKvo8DwFTbzpIwDS+jrPfAG6/Emj8MPDpgvjxJUbqFRAwTa3GbsBUfExT2xdOwZQApw/OuueM/G7dukUM5XNhevpbapC1DuUTTBu0r4sHB9dSUHpj9xtQ4/kbce8rt6P9Gzl4/K1CtSUp1zGNANOeNXFT9+qo1eX2CIspl26yHqwzgZJLWdElhJOTrAfjbNy4UW0pSounXi6Ky2BZD7aJedB/dejQoSoN49N/NRaE2r2z5p3ss4BpsgqmQXoBU286ScA0uo5rVgCNHwJqXQW8MTF6PHnjTgEZynenV1XEdgOm4mOa2h5yA6YEM55cM3TlypWhRfMDlkJCGveV57C3hsAIMM1vgHrN6+L2breiercbQTDlWbNXDRSMro3H3owDpqU1UOvJO1C/wLCYckcpbn3KyVgahs2KMYx1IEzbvadl9csvvwxunUo45bamhFW7NDo/LidFaz59arntqhO/UjOgmuvoxb2AqRcq+jwPAVNvOkjANFLHI0eAbk8AF/4vMLAX8NNPkXEkJHEFBEwT166yUroB08qqU7aW4wZMuV88gW3GjBkKQOm7abYWEs44+Yfbg9LSTasq03DYPzgrPzcHDQrq44GmD6BWxztwU5cauLHbjcpqWqtvTbSekovHphWrnZ/MFtOH+t2Hu5+rhXs63I26DeuqxfUJeiyTYDhs2DB89dVXylprXkc1Wr8SVrnw/nvvvRdcY5Vt4fnII4+AoyYLFy5UC/MTsq1QS0sr28YdsZhHaWkpSkpKHFtOo9Ur0XAB00SVS6N0AqbedJaAabiO44YB/zrLmOD0zdrwd/LkHwVkKD+1feEGTMXHNLV94QRMObGHw+FLlixR23VyvVK1i1MUn0paMR977DFlTWQabkn61FNPhU0OapDXAA8VP4TazWvj1qdvxU1da+CW52ugYGQdtJtcGALTEXkofqke6nd+AA83ewj1ioytSJX1MddYDYBWTs64f+aZZ9Q6qoRnLllldj+gioRLQiaH6QmxtHZyJj3ra7ZmEnY5WYpteO2117B69WqVRluBdY8wf7oQsDyCMdOY84l1r/Pw6ipg6pWSPs5HwNSbzhEwNXQsn2cs/ZRzJ/DRu95oK7mkTgEB09Rpy5zdgKn4mKa2L5yAKS2jhLg2bdqE+ZTGAi9aHjXc0e+Us+Pthrvr59VXFtB72t6Nmp1rqiWhWpTlov34YrQeWYQm/fJR0DEHOSUNkJPXQM3Ez8nPQW5JLvIa5yK3KBc5eQagskyuIcqdqPi54fA+20eApIWUy1itW7cOEyZMUIvts35ME60dfEcrKDcHeOutt5SLAt0YmBd9Vwm4BG/6m7Zu3TomrFvL8LpXBUy9VtSH+QmYetMp2Q6mO7YC7RsBN/wdmDDCG00ll9gKyFB+bH388NYNmIqPaWp7zAmYWqEqFc8aUO96/E7kvPQAWgwpQJOuBchrmGPAKK2ztJAW5iCvZR5KehajYf8SFHUuRF6zPANOAxZUAiVBmMtF0VpLIKVbwdy5c5VVldbeWEBq1z5CLAF1/vz5yjVh7dq1GDVqVHDSlF2aWGFe96qAqdeK+jA/AVNvOiWbwfTl54GzfmNsJ7pntzd6Si7xFagqMOUfvZEjR6pFxzt37oxsPPv06aMWMOdakbEON2AaKx95l7wCfgFTQlyD3Aaox0lNTesjv2kO8opMUJqfg7ymuSjqWoiG/YpR1KUABY/lo+SFYjTsU4yiZwuR2zBkPaV1ltbOtm3bKvcDTspq3ry5svi6hVLWjWk4uYt5MK/27dsr94FYLg0Cpsl/PiUHkwICpiYxkrjNRjB9ewpw8yVAy3xg+RdJiCdJq0wBN0P59C2rUaMGzjvvPNSrV08NEWYjlLLNhIC6deviwgsvVJpQG7vDDZiKj6mdgt6F+QlMFZzmcMg+J2QBVUCah6KnC1HSqxjFpUUoaJ+vIDS3OBd5TXJR0LEAxT2KlBWVsKoBlTBJ/9OGjRuiqLjI1pUgFjzavdOAmojV1Zyfdz1o5BTTYlretRr4iz38rIOyLV5XI/H8doyrg2pdyxPPIAtSCph608nZBKbLlwJF9wP33QDMecMb/SSXqlHAKZhyNjBBbObMmVVTUR+X+vHHHyttOEvbergBU/Extarn7bPfwDQIb3mGH2lB23yUPF+EkheKUPh4AfKa5iGnwPApVXFzc5Sfad4jeWpYv6RnEYpLC5HfMg8EV0JubtNc5DbJDU8XZeJWsPwUv/e2F4H4YGqBPgWCdcuww+uaJJifgGl84QRM42vkJEY2gOmhg0CXDsDlZwDDXnKiisRJpQKVNZRPa+A999yTyqZkRN61atVSvn7mxrgBU/ExNSvn/b1fwZSTmgqfKEDDvsWGH2mLvNBEp4AvqbKs5ueAk6HUhKjiXBBkaVUt6VWEwsfyFYwWPJ6P/EfzkNsoN+SvmmLwjAe4XvekazDFljLUqVaKoI1yQWnIohoGrDtQVjdgba1bhrKu1VBnHHHWCC8N7gpTjtJqJitstPxUudp6G4hvjqsA2lRmNV2e15KlX34Cpt70WaaD6ejBwGWnAZ3aAts2e6OZ5JKcApUFprSUTpo0KbnKZkFq+t3Wrl07rKVuwDQsoTx4roBfwVT5k3YvROGTBcgtNIAytyDHmImfb1hC85rkIb9VHvJb5yGP4KotpI1yUfxcEYq7FyGnKAcFTxFMA0P8GmqzHUzDLKYKFjVUBqAwYGGNjKdBMQaYRs3PkoZAai7H5h4g8JoA2vP/AumToYCpN32VqWD60Vyg9g3G0P3iT7zRSnLxjwJOhvLpV8phZh72LlzVgt+5SbUs7Ds+qZw8Txzebv13LbwYakStzIcbMBUfU7Ny3t/7Fkyb5aKoWyHy2wVm3HMxfQ7XM6x5XtCaWtK3GCV9ilHSt0hZV/Oa5Sof06JOhSjuVhS0pKplpWhZrWIg1eV73ZPxLaYRPqYh2AuDT9aMwKispgZIGhZSo8r8Tx/PYhovv5CVNSSDSmMLpqE42X4nYOrNJyDTwHTzBqB1IVDzUmDaOG80klz8p0BCYBr4Tg22JjBiZfcdHIzj5ManYGr926OebQwbyYKp+Jg6+ZAkHsf3YNo2Lzj8nt8iD8UvFCG/TT4a9S1BSbci5LfOB2GUVtOG/UpQ+GgB8hrlIgimtJByMhWvPrGWEk69PuKDafALKhI2jf+8enhdXwmuFgtn4Fe4IzCNCsK0gJrLMKQwgylDzL96k/4S9VrtKspPwNQb4TMJTPs+B/z1FKB/N+DHQ97oI7l4r0BlDeVHWEyD3/uhNqnvVpvwUIwMuosC0MmCqfiYpvYzklZg2jIPxT0DYNq7BA17FaPo6QI1S5++pYVPFSiragSY+sRKqq2lVQymgOFfWg0a+KxQGPrIRUJsVIup6Qsgen6hnNVd0DILRE9j8V21ZJFNjwKm3vR2JoDp9PHAjf8wFspft8obXSSX1CngazANWFFZx2oR8wRCI2t6XoEyTJi+7w3VzAaH6H9brFAc+nsSbowwRuzs+8Oah/H3zH7IPtq7ZMHUvmYS6pUCaQmmrfJR0C4fRc8VoWFvYx3Tkt7FhjW1bV6kxVTANNKvSIGgnuRk+ZJR//ED71Q8PRQS+AIzW0zDfET1l1rU/CyQGcXH1PxlJT6mof/qAqYhLZK5S2cwXboEyLsbeKgmMG9OMipI2nRTIDVD+QZQaiOFcuPS3/fKvz8EmWGQF/YdbzFgmN+pew235SitW8c06db098BkpGC/hP8NsPQU4wbrGDBq6L9llqjmv2XmV8mCqfiYmtX0/j7twLRXkZp5X/Bovlo6ijPtuYRUPpeV6lOM4l5FaiJU2FC+gGkkmBrAp/1FA36lNkPs/Mip/9zqXSlKgz6mIcsrf2nXGVcWfVa+6UvE+OKLHMoPhqshJvtf395//NMrRwFTb/orHcF0/17g6dbAv88DXnvVGx0kl/RSICEwDX6n6+9c03c+m28BQm0V1aCqvvv1sL/JkBAJqRo+DU1DYGmCT0Jq13KUdzWtxqKBUsGmCYJjdk04TLMsXV9zMsOoYm9JTRZMmZ5/93iVw3sF0hJMH81HSb8i5UfKCVG5jXMVjHIiVHGPQgFT7z8moRxDXzihMLmrHAUETL3ROd3AdPjLwD/+AHR7Ati10xsNJJfKVcAPQ/lho1+B5hthIWg1hvNN8GqyeIYBoNkqGoBKnTZ4DQCt/pvBsjjaZr0Ge8KSjwGb4UYKY7TO7PrF9+FQzPyMdtlDKd8nC6biYxrstZTc+B5MTbPyuWi+8jFtnY/C4G5PRWjYs9jYFer5IuS1NkBVLKYp+bjEGWJJUZmSraGAgKk3n4R0AdP3ZwF3/RtoWg/48lNv2i65VI0CfgBTtpyQGOa/SRjUVktbafQEWAsAmsHUBK+2WbAMs6WU8buWoaxudHA0wDISOIP56zIDeQfDg1AaI60HYGouT+69V8C3YNo4F0XPFaqTQ/Vcw5Qz79VQfXNjzVJaSzmEzy1K89vkqYlP3I5UxetRhOKuRb6aiV9lk5+8/9hIjl4qMOt1YMG8+DkKmMbXyEkMv4Pp+nXAIznAnVcDM6Y6aZHEyQYFEhrK18PwQYEMC6S2PGqXruBQuAK+8KFxAxJNVlTmpeJpsLT4mAZ8U4NlBOLWqathMeBragJiVYbpOdLFINiAwI1RZthkLb5RVlddL2ua0HOyFlPxMQ1pmYo7v4Ip1x3lBKeGXKO0R5GykBZ1LlDPXFg/uPSTXg6qwNjClNuWckmp4h7GUlJmGPTTvdd9GXO5KK8Lk/y8VWDMYODUasbC6LFyFjCNpY7zd34G017PAhf9ERj0InDiuPM2SczMVeCrz4wfKN6AqR7mNsFnAEb1EHwQKLWkYRAaCIwICx9y15NijdgBiAyCpxVkjVjKmhv0iY0PlxEwqy3CwTxCLgpB8A5UP1kwZXrqxasc3ivgVzBVEMmdnprlobhroQLShv2N7UnVDk/mNUkLcwyIfbEYjfqVoOjpQuQ18c/2o3ZA7HVPCph6rWgl5sfJLOf+P8OP8B//A7w2xL5wAVN7XdyG+hFMJ48BrjkfeLIFwAXz5cgsBZIdyj/9l8AZvzqKe68/itcnRNfGvI5p9FjyRoMpRyd2bDP0cLPzk/iYpvYz5GswDVhDc4uMrUi5TWlB63wUP1NobE1alKN2gSruXqh2fip8tkAttq92eeKi+j6cja/r5HWvCph6rWgl5kcQ5SLp91cHql8InPZLoE4NYNd34ZUQMA3XI9EnP4Hpp+VAvduB/+edWwAAIABJREFU3LuABR8m2iJJ53cFkgXT6y4ALvj9Afzr7OPqR+wZ/wHU+hcwsFd4ywVMw/WI9qTBdNhLwL/PBR5/BOjUsRyffbY8WhIJr0QFfA2mZrDMyzH8TLktaZdClPQ0hutLuMh+50LlY0r/0lxuO2q2pprz8NG9110sYOq1opWYX9nQEJgSTu+5DrjsNOCc3wJ9uoYqImAa0iKZOz+AKWfX848hf4hMHJVMayRtNijQtgQ493eHcPe1R9UPWPofE6g40nL6fwC3XQG81AOoUeMmGV528IHQYMqoB38ABrwA/P0Ph1D9nz/ihaeBRR/HzkR8TGPrk+xbgmmLFi3S42zZAs3bNEfzjo/gka7N0Kx7UzzSqRmaP9YcLVo3T482BLROtt+s6as1qGVYXfLvBQprA8V1gIYPAo0fAprWNyZTtMgDWhUAbYqAdg2BDo2Bx5oafyA5hMh1Ep9tC3RuD3R9FCjtCHR/Enj+aaDns8CLnQ1Q6tfN+BLkf2b+Yh/cGxjSD+CvzxEDgFEDAfpNjh0KjBsOTBgJTBoNTHnN2MubQ1FvTgLengLMnAbMfgN45y3g3RkAZyJz4fCP3gU+eR8onwcs/AhY/Anw6QLg80UAFxmn39XyL4CVXwGrlwNrVwJfrwY4NLPxG2M4dOsmYPsW4NvtwM5vjaV29uwC9u0BDuw3vpC4jeNPh4GjR4Djx4GKCqu0qX+mRtpiSjDV5y2XAGf+Grjh78CGdYCAqTd9UdVg+mof4Oz/Mv4//XDAmzZJLpmtwOL5wOm/PB4EU/0dwauGVI60nH3SCgFTBx8FM5jq6BzKnzNzjfob+JdfAfXvAF7tC6xZqWOErkwvPqYhPeROFLBToBqhjnA3+3UD9gh9hD9C4LQyAwoJh4REgtDYIQY8EiIJk4TKIX0NyCRsEjr5C7xfqQGjhFLCKSG1+xMGtBJeCbHPtgGebmX4x9EKRNjt0AhoV2JAMGGYUPxIA2PpG8IyoZnwXHgfkH+PAdWEaw5rclebB282hrNr3wjcez1w9zXGF/Ad/zKsAzUvA26+GKjxT2Nrxuv/Blz7V8OKcNXZwJVnApefAVx6GnDxqcA//8/w4fzb7w0IPO93hkXyrN8Af/lPw+rw558bk5B4pU8Xv5z4npZLxv/rycDf/tvIh/kx30v/bJTD8lgurRjXng+wPtwykvVjPWteatSb9ecfErbn3usAto/DdHZgqv/4cDIMrSIP3VWOPXv22PW/hLlQoKrAdM6bxmeA/x/4Y0qO7FEg2aF8KnX6fxzD1eccV98v/G7j2rb88crvCX5HXPi/wA3X3y1g6uBjFQ1Mly1bFkxNY0iz+obOXCWDfz9p4OAhPqZBmeRGFIiqgAzlR5XG/QtaTWk9PXrUsKbSqsrhHlpZ9+0FaHXlUCy/pGiN3b4VoHWWk1ZoraXV9us1hhWXAEKr7vKlwFefG9ZeWn1p/aUVZOHHQLeO0cGUoEurKWFGLKbu+9IuRWWDKa35/DFGgJj7tl2NJCzTFYgHpod/BFYtA7h0HEeg+AOfP9KvOQ/408+MH9ic/HT2byvUj+2rzwFu+JsBptdfAPz9f4zvIvExdfZJcgKm5pzenmoYS677K/BUS+P/8bGj5hhyLwqIAlYFBEytiqTRM30MrRZT+ozRf+yKMww3BjZHwNSbTq0sMOUPG7rCXPEXYMTL3tRdcklPBXZ/D3y+0Bi9ot9460LgvhuAS/5sjNjwByh/uHBU6bnHgKH9DVenzxYa7khs9UN3LcTffn8i6OrD+IRSjuh8s8bQRcDU2efDLZjqXOn2NfIV4KpzDuPsk5ajQ9Md4ARGOUQBUSBSAQHTSE3SJsQKpnQLoCtBm+LwJgiYhuuR6FNlgOn4EYY7CV1dvtuRaE0lXboowBET+sRzImO3x4FGdYHbLgcuOMVwAaJLT/3bAU5ioksUV+Kg+9WKpcYIjJN2lnYZhdN+EfJB58Q5fk/QR18fbsB0w4bE1yWrirTJlKn10ddEwdSc/ufVTsUj+RuVtZqratAdjiNlclStAgcOHMCiRYswbtw4zJgxQ84ZM8A1kD/++GN8+23AF6WSukjAtJKETkUxXMOSFlNtJb3yLwAtJdZDwNSqSGLPqQTTBR8ZQ34ldez7MLEaS6qqVICW77WrjOFbWjKfamX4xNOPnP7pF50K0Heck06faG745vP/9CfvGaBy6CDURJlOnTol1Qz+cfnb7yuUXym/K+jiM21ceJZOwZSzygsKCsITO3xi2vvuu89h7PBohMtE0iaaLrz00FOyYGr1MV3xpTGZmC4VLfOBqWMBWsnlqFwFysvL0blzZ7z55puYNWsWFi9eLOfixRg7dizmzJmDF198ETNnzqy0ThEwrTSpvS+IqxXQ8sGTKyNEOwRMoynjLjwVYEpfY074u/Vy4PXx7uojsatWgf17gS8/Bd6YCLzU3VixpM5NhsWbEyH/dZYx7N60HtClgzFJ9K3JwJJyw7f8xIn49Y/nYxo/ByirR+0bj6pJT/yu6PtcZCqnYNq6dWsFywQst0dVpE2mTLv2JQumdnnqMK4qU3Cv4QPMicFcaabCwWdEp5drYgp89NFHGDJkCHbt2pVYBlmQ6tixY+DqE9OnT6+U1gqYVorMqSlkylhjFv/6tbHzFzCNrY/Tt16DKVew4GoNXMWCy47J4S8FuLMPl5zjiiRcVYQzrbkyBlfW4LJdnET08G3GCiJcw3L0YGOFk2WfG5Mc/dIaWkwH9T6oti/mKih2h1MwPfnkkxWY9u3b1y6bmGFVkTaZMu0akyyYOlnHlBPaOJOfnzWuLNPnOWO5Q7v6SFhyCmzatAm9evXCvn37kssoS1KPGjUKS5YsSXlrBUxTLnHqCuAXmJNDwNSJSvHjeAWmM6YaS4E92hjY8HX8ciWG9wpwBQ2ugvH+bGNSSqd2xhJ0N11sTB7k0CqXlqMF6/FmANdgpk8310letwo4mEbryBJMd+7cpdafjqakEzCltYQWXJ6XXnpptKxsw6sirbnMs846y7ZebgOTBVOmp368OjnoZ/5KT8MKz88iJ1DJd4YT5ZzFGT9+PD799FNnkSUWNm/ejH79+qVcCQHTlEtc9QUkC6bz5s1DJp2JToZIFkxXfgkU3W9Y2T6cW/Wfi0yuAZdp4wQh/gjgH/bHmhi6cxklTgTiDmlcE7jxwwChlEstcUiea1Bu3ggcO+YPdbwayo83TGkFU1pEGWY+CXcaTHk1v+M9fUD5f6sq0j7zzDMR9XFaXzc9nSyYWn1M3ZTNH0T8rF7w34aVnq4/3PRFjsQU+PHHH1FaWooTTnxqEisiI1MNGzYM69evT2nbBExTKq8/Mk8ETPkFSmfwU045BdWrV8+o88wzz1R/xJxaLXQvJgqmXM+Wm0pwAwXuaiZH8gp8/53hq0k/a27iwYkj911vACf3g+cySg/cZKzj2+MpY1e5OW8AX34WWuw8+VqkPoeqAlO2jBZH/l8xw2i0e06IMvudVkXaZMp02pPJgqnTcuLFWzLf2JWR66NyBY9578RLIe+tChCuRo4caQ2W5zgKzJ49G/Pnz48TK7nXAqbJ6ZcWqd2CKf/AcKiOf2wStS76XRh+IdH/zM0XUyJg+tqrxuzrHk+KdcPNZ4KbTnDYfMyrxvqcahmlKwDuwHbeScbOaDl3GpZQTuaZMML447xmhbGhhZuyMj0uh/LdWky1Jvwu0BOI7KD0kksuiTosHS8toTfaj8NE0zIdVzGwqyvDYpWp2xzrmiyYOvExjVW+9R3duWZMA+reYvij9u9uTMizxpPnSAU4Cjh0qFgKIpWJHcKVCyZOnBg7UpJvBUyTFDAdkrsFUw7JJbokTDrooevIPxL8Q+UUvt2A6cfvGTOymzUAln2hS5QrFeBi49zZjBbMV/sAT7Y0llHiVrzcypeTi26/0th6+Jk2wMAXgenjjYlIm9bLRDG3n6JkwFSXFc1ySitlvCNaWic/Cgm+dpAZL22i6eK1JVkwZXq2JxqQxys/1vvvthsjA9X/CRTfb2wdzh94ctgrsHz5ckyePNn+pYRGVeCTTz7B3Lmp9UUTMI0qf+a8cAumHL6n5cE4dqCsrjHhwe4PROmCVOkUKLert9uj7BhXB+Y6E8Dj/ZHTLXQCplwwvU2R4b84c5pOmV3XvbuBLxYbMMlJQ+1KjDVarzobOPVnANfb5bA7dyviovIjBgCzphvb7vKPqxwhBfh/zot1TBO1mLIm/AFn93+fYfHWFq2KtMmUGVLe/i5ZMOX3KvMIfb/al5NsKP1Re3WCWiKsXUPgzckykmDVVMDUqoizZwFTZzpJrDgKuAVT/sEJHTEAcUGp+oNlBr1QumTvYpSbaNZbylCnWrUwMOUffad/+OOBKSHs4lOBwX0SrWB6pNu2BSifB4wbDjz/lAGYd10DXPRHw+J53QXAQ7cCbYsN/0/G+2C2saf7Pv17Jz2aWuW19AOY8scb60HXF1pICVUEUobxjDXiUBVpteuBdtVxU994HZ4smMbLPxXvP10APNoE4MQ/blvL0Rw5AAHTxD4FAqaJ6SapLAqkDEwBlHethmoeWzWN6qcPmHI29w1/B55qCRDa0vk4fgz4erWx7eXwl41ZwFxJ4JZLgPNPMtZd5X3+PcZuRVyLdVoZUP6hsYwNh+nl8JcCyQ7lE/AIe1YrHyGNw/Sx1jStirTxynT6Q9SuF5MFU1pzuYIBr5V90B+Vi/Zzp7F7rgX4f3d55VejspsdtTwB06jSxHwhYBpTHnnpVIGUg2ndMqht3WlBrVuGMsIqrSk6XANswMLCd5FW1gCI6jhdywwXAg29yjpbirCBfRsLKFCOUp2HugbSBKy72sqjYToZiylneOfdbUAaF2JPh+PAfoALwHMHIi6j1LEZUP8OgLN7T/8P4JI/GQt7c7IRZ/tyK01Orvh8EbBjazq0UOpoVcAJmHIFDp7WgwBFGIt2EFajucJURdpkyozWRnN4y5Yt0aZNG3OQ2hFn2bJlYWHRHqglv4NiaRotrZfh3HFu8mvAXf82QLVsKLBts5cl+D8vAdPE+kjANDHdJJVFgdSBqcWqqeFPw6SqhwZOE1QG4oXgNBDHDmR1Xk7ANACqdcYpTDZKH1cH1aoFyrYB2UTAlHDHLQNr/BOYNMYidhU/ckHuRZ8A3HO9dxegdSFQ+0bg8jOMrWuvPgeoU8NYXonD8Fw14L2ZwMqvAPqGyuEvBQgxyVj42BonYMolYFjWpEmT/CWAj2pDbaiRdc9wbtXoFEwJ8oRSq/W5Kpu5diUwsJexhS63R+YP0UMHq7JGlVO2gGliOguYJqabpLIokCow5UQiflEHAVPBYx2UmYez7cK0BVWDqG2cgOXTBZiq+ug8LRqoRw/AtPdze3De7wzoc7rzll1VEg3b+DXw4TvGMkqljwONHwLu+JcxyeHc/wdwZjstoB0aA31LDXCe/wHAbWu5nqoc6aVAZYEpVdHg1bhxY9kNx/Qx4c5A1CQauLsBU1O2vrylP2qXDgB/wHZ/wvAl92VFPaiUgGliIgqYJqabpLIo4AmYhg2P61n6dhBqsowCMOA1PExVzwSj9kBpZ4215BMGmpb4Fg3UY1h8I4JTiykn7/zr3J1oWPcgaGFIxUFwpOVy9hvAkH4A9zWnLycts9yb/cL/BW67HCiqbbwb9CLw5iSAf0zo28ptNuUQBawKOLGY6jTr1q3DSy+9pCDsZz/7Ga6++uqIHZWsOz5l6vMVV1yBn//856hVq5bShNrYHW7AlK4GVeVjalf3aGH8LqI/avNcY7if3zWrvooWOz3DBUwT6zcB08R0k1QWBTwBU225tOQd9qhgMxwe7aETgAlM1QQqG0tn2MQqm7wRBpoGmJqH8cPqxoew+MbbeGDKfan55czh745t3sGmTZsisnUasOt7w1fz9QnAS90BDpvVrWlYJ/70M2O4/Z7rgKb1jdmzXEZpzpvA8qXA7u+dliLxRIFwBdyAaXhKKMsph56z8Vy7dq1VDttnN2BKHWl55TVdDvqjcvvTh2oC+fcC40cAO7alS+2j11PANLo2sd4ImMZSR945VqDKwVT7eJprbAJNe3i1WEBN8YPZhIGmJX4wkukmLL4RHgtMudXlv84CRr5ixI23XBTXMOUySvzifuEZA2gJmpxQdOZ/GluScocWrnPKNQa5jNKHc41Z8Nng02XqCbl1qIAXQ/lTp06Nu/OTw+pINBsFqG86+5jaNClqEEeLRg8GbrrIWJ+YozvpuhKHgGnUbo75QsA0pjzy0qkCVQmmZsuoub5hVlKT9TQUx87H1M51IOTjGpZnKKPQnUMwnTIW+Pd5hq/Vrp1G8qNHgBe6T8WE0TsVqNIPq+QB4NbLgL+eYpz8ss69y5jp/lIPYGoZsOhjgMB6/HioGnInCjhVwAswHThwIHbuDHyQnRYs8RwrwO0ZV6xY4Th+pkT8tNxYp5g/3umPyu+6dDoETBPrLQHTxHSTVBYFqhRMEbBkmq2mCkRDQAkdxzScryCTfq3ahSAAlaGh+tCyUMHJVxFxwl0Gog3lP/10V3DrPk4S4sShhg8aa3Q2qAVc/zfgL/9pLJx/5dnfo8Gdh9CpHTCkLzBjqrFb0fffWQSXR1HARwqMGTMGX3/9tY9qlFlVGT58ODZu3OioUeniY+qoMYFI9Ed9bxbQsSlQ6yrg1b7AmhT54bupV7y4AqbxFLJ/L2Bqr4uEulSgasHUqGwQNNUkKovlU0XRABuYWGVdx5RxAkBLK1K1aszDgNMgmKp8QsAaimfUgf8G6xGAYA7lNy4cgVOrGet30p+0+5PGcBWXUVq9DPhhv5E+3lB+qBS5EwX8o8CsWbMwf/58/1Qow2rSvXt3HDrkbMmLdPQxddNd324ztiLmphxc43nSaGDnt25yqLy4AqaJaS1gmphuksqiQHJgasksgx75JZr/8AQFpZzdziPWzHYB0wzq/DRpihdD+atWrcLo0aPTpMXpVc1vvvkGQ4cOdVxpP65j6rjyLiMqf9RBwN3XGH71c98Gjh11mUkKowuYJiaugGliukkqiwICphZBAo9cZum8k/ehRZNB6FcKXPtXY6Y8/UG5Naf1EDC1KiLPqVbACzBlHfv06YOtW2XrLq/7a/LkyVi4cKHX2WZcfkvKgZefN1YgKe0I0D+1qg8B08R6QMA0Md0klUUBAVOLIKbH/Icm4E8/q8DePUYgLaccgrrqbMN/9MhPocgCpiEt5C69FCgvL8fYsWPTq9I+ry2Xk+Kar26OTPQxddN+5Y86E+j6KHD7lcCg3sDXa9zk4F1cAdPEtBQwTUw3SWVRQMDUIojpkT6mD9SaiavPNQUCWLEUapLTP/5grDnKL9TBg8cktY5peAnyJApUrgLc2WnatGlqO8yKigrImZgGx48fB6GmtLQUq1evdtWJme5j6kYMroU6fTzQIg/IudPYRrky12sWMHXTW6G4AqYhLeQuCQUETKOLp9cx5fASZ+FbD247OmYwcPe1wHV/346vlm7BDwesseRZFEiNAl4N5evavfPOO+jVqxcGDx6MLl26yJmABq1atcLIkSMRbScorbXdNZt8TO3aHy1szQpg9CDg4duAVgXGrlMVJ6LF9iZcwDQxHQVME9NNUlkUEDC1CGJ61GDKIP5yf7q16aXl9unHZqktSf/0c2MnlH17gMOHLZHkURTwUAGvwdTDqklWokBKFKA/KteBvvliY8j/80UpKUZZvekjLIc7BQRM3eklsaMoIGAaRRgAZjDdswt48ObQTk/WVNrHdMdWoH93Y43TtiXGdqGVOQRlrZc8iwKiQHookO0+pm56ibvhcck+jmbdejkwsBfALaK9OsRimpiSAqaJ6SapLApUBpjqbUXLx9VRe0HT0lPNvKi+rlNgEXzjvbFmafg6pKE97XWc0nFlqFPNvCB/ZJzgQvy6HIdXM5gyycovgesvMLYKtWahwdQc/vYUY//oK/4CfLbQv2v2mess96KAKFA1CoiPaWK6K3/UccBjTY1NUCaOAjhilcwhYJqYegKmiekmqSwKVBqYEkYjdm8qRXBlEJstQRXQqsXyA5W2xjGBbBBgA2GhXaACi/ObyrZIEPXRCqaM+P4s4LzfGVuJmhPagal+v/IrYwvTC/8X6FsK8IuUllU5RIFkFJCh/GTU819a8TFNvk/ojzpqEFBcB2iZZ1hVE8nVCZge/CGRnDM7jYBpZvdvpbWu8sDUuqOTsQuTBkhtVd1hbrkFRNXOTHob0kA8A15DFlMVxwqhlnzMRcS6twNTxh83DPjn/4WnjAWmOuaPPwKvDQHuvQ64vzqwbXMk4Oq4chUF4ikgYBpPIXmfzQosmW/4o95zHdC5PfDlp87VcAKmI18B3hI31DBRBUzD5JCHRBWoNDC1wqLeAtQCmmyHhs3gcP0ChoaDbLC9YdAZJQ4Mq6mG4GDaODfRwJTJencF7r0+lIETMA3FBsrnGTuenPYLYGoZsGk98JNpXVRzXLkXBUSBzFdAfExT08dmf9RbLgUGvABs3hC7LCdgWv1C4N/nAuvXxc4rm94KmGZTb6ewrb4B0wBghsGoE+i0iaPzsF69BFN2yaNNgDbFRue4BVPdpRzWf7kHcMPfgdaFwIZ18kWntZGrKJBNCoiPaep7my5U0+iP2sRYfmr8CODA/shy44Hpsi+AM38NnPZLoN7tgAzrGxoKmEZ+liQkAQWqDkwDvp8Bi2n8Ifgo1lAbMHULoNFki2UxZRquY8qdoLidXqJgai57xlSg8D7gstMBLouyzt363Oas5D4LFOAPL35G5cgMBcTHtHL7UfmjDgSa1AOa5wBz3w6VHw9M2zcCzv1/AK2mBNQu7UNps/lOwDSbe9/DtlcamJonMan6G6BpTFqyH2rXQ/p6YlN8H9Nw2A3JZC4rFBrvLh6YMj2XKOFyJe1bvOfZzk+rlhlr9F30R6B3F4BfoN9ui1dbeZ9tCgiYZluPS3tTpcDigD8qrZ/PtgWmTvgG0dYxpXWUxgMO43OuwGWnAdwFUPxNAQHTVH1CsyzfygNTm1n5Jr9TBZ3mJaRMQ/tBC2iYddS8LJRpYlUgTjCN9mU1leW0i52AKfNa8CFw3kk/4oO5251m7SgetzodOxS47wbgvusBzu5f8aWjpBJJFBAF0kwB8TGt+g6jP+q7M4A2Jd/jirP2qsX8rf6ob00BTv8lwElVBFOetJ6Kv6mAadV/gjOkBpUHpqUoM69jGgGKAWunWuOUa5gSNg1LZ9g6pCZgVXEWcB1TE5iyX8LihAOxm25zCqbMs02TeTjz1xVqeN9NGU7jEn65YD+/ECePAZZ9DhyRyVJO5ZN4ooDvFRAfU/90EYfyh776tvJH5VyCujWN1VgIrg/dalhINZTyeufVhr9pUe3s9jcVi6l/PsNpXZPKBNPgmqVeKrag1H6xfg/KcAOm9DHt/tRe3HyJBwXHyILO+5xVSt8mrtO3dAnAoX85sk8BGcrPrD4XH1P/9KfVx3T1cmDUQGMOwBm/ArhpihlMea/9TXtlsdu3gKl/PsNpXZP0AdOARTXM0hrNp9SbLnELpps2bUKntkCjut6UHy+XmdOBovuBi/8ELPwY+EwtqxUvlbzPFAUETDOlJ6UdflPACqa6ftz69M+/AK46G/jb7w3/0lsvC0Eq5wXQ3/S9WTpFdl0FTLOrv1PW2unTp2PPHuf7t/GPodvDmMRk2uXJbQbB+IGh/eBwfzWEDfMH43lz4wZMqSPBlEeTh4EeT3lTBye50GL6XEfg4lOBns8Ciz8BvvXW3dVJNSSOKCAKJKGA+JgmIZ7HSaOBKa2inOxECynXsa5xEZ9P4G+/P4Krzl+rzlOrAffdOhedO3f27VlYWIgaNWo4Ptu0aaPa0q9fP2zYEH0RWAFTjz+I2Zrdyy+/jN27dztufiJg6jhzn0V0A6bDhg0LgimhkF9ak0ZXboPo/zRuOFD7RuDua41JWfRNlUMUEAX8r4D4mPqnj+zAVK9detsVwAM3AQ/e8iPO/f0S/N8vPgdh9LIzN+DWqxeg3n3T0a51X7WUm/4b4rfryJEjwc+b05Px2YaCggKceeaZINjaHQKmdqpImGsFhg4diq1bnW/cfvLJJ4O+UNlw8D8h/0M6OQYMGIDvvvsuGJW+nxzu+bSKhtcXfgS0bwjQH2rCSOCT94GjR4LVk5sMUECG8jOgE01NEB9TkxhVfGsHplwhhQB6/snApacdw5//6x00rL8I8z+o4spWcvH8nFavXt32b6OAaSV3RqYWN3HiRKxYscJx8+677z60bt3acfx0jchhtVNOOSXmsIW5bd27d8fhw4fNQZj9hjFTc/f3YcGV+rB9C/BKT6DGP4FHcoAP5wJ05Jcj/RUQME3/PpQW+FMBOzAlgM6abmxn2rdv36z4Oxitd7QF2PpewNSqiDwnpABN+e+//77jtPy1dMkllyh/k0y1nI4aNUpBqVNrKV0h6Htjd3Am51Xn2L2p/LDZrwPFdYB//h/w/mzg/Sx10K985aVEUSC+AuJjGl+jyophB6bmsqOBmTlOJt9HA3MB00zu9Ups27p169R2mm6KJJDyPyYtinSgpr+Jnx29ndaNbTnrrLPUMAWB3enx6aefYtq0aVGjP/80UP+OqK8r/cWqr4BujwOX/Blg3bgV33c7Kr0aUmCSCsybN8+xRT/JoiR5JSjA7xxawd1891RCtbKyiITB1LqGtnmibrVq0LsYuhO1HKXm1WhSuESi03rxM8rhfOshYGpVRJ4TVqBnz56uJkDpggio/IBqx2j9KzJdr2wLrRZuj9deew38Iot1tCkCnmoVK0blv+PWeuNHAHVqGAtE0/VAJktVfj8kWqIM5SeqnD/T6e/TTB2J8qfq9rVKFkztANRYncayGYx98WGhaldEM5iGva2aBwHTqtE9q0qdM2cOeMrhXoFvv/026jC+ObcD+4B6twEjBpiTBkQ8AAAgAElEQVRD/XO/4COgQ2PgzP80ZvbPmAYcO+qf+klNIhWINgEhMqaEiAKigBsF4oFpNDDTuw7agSmQ2LrbAqbhPed+wcrw9PKUJgrQR5JW0/Xr16dJjf1TzeHDh2PRokWOKrR2pTEJad47jqJXSaRtm4FBLwI3XQw0rQe8ORlY43xuXJXUWQr1ToGDBw+Cw3GrVq2SMwkNtmzZ4rpTxMfUtWQpS5AaMAXsIFOFmYf8g9ZRu226AYQN5Rtx6owrR1ldbuUdOIN5hCQKK6duGcq6WrbrVvnGzkPnFg3MZShfKyRXTxTgzPzS0lKUlZVh1qxZcsbRgBPGBg4ciBkzZrjS/6O5xnIjWza6SlYlkTm03/BB4B//A7w+3piRWiUVkUJtFfDax3T+/PnKV5yf6wkTJsiZoAaTJ0/GoEGDMGbMGFdL6/GPvfiY2n7UKz0wNWAaaTGNBNXAJjJdQxt4R8SxAVN+boJW2oCfa51xoYkD1jyCkKoBVuVpdjOIrKu5EwRMzWrIfUoVoG/Te++9h4ULF8rpQINELcwTRwMX/m/6DJWv/Aro/qSx40n3J4ApY4Gd36b0oyiZO1DASx9TTuDjWrxudoFzUMWsjvLhhx/arvUYTRTxMY2mTOrDOVLUsZnhb/9QTaBpg91ocPcalD5u7KbX9zlgwAvGetBLyoERQ5bYTv6JNZQf6WNqQGgQKAPNtIVIDZCMYwemJpBllLA8FKiaoVPFQCmtq4F83e7OKGAa6Cy5iAKZpED/7sA916VXiw4eACaOMnY9uf1KY2crLuQvR9Uo4JWP6dGjR3H33Xdj+3bZx9brnpw0aRJoiZbD/wpwI5K/nmKc5/7uOM7+r6PBZx1+2i+NRfa50P61Vz8c2aiYs/KtcGhObtlu2wSiYZDJJDZgaraOMoo5TTToNMfRQB1meTVXz3IvYGoRRB5FgUxR4InmQOui9GwNZ+8/1gQ46zfAa0OA8cOB48fSsy3ZXuvy8nJMnz4922VISfu3bdsGrvno5BAfUycqpTZOzp3Gpii3XHYI1/9jJ+6vjoiz7i3AQ7fvcG4xVSBZDVZ4ZEsUHFr8QsOAUccxgWpKwFTJaoHjatFBWsA0tZ9DyV0UqDIFjh0Diu4HXupRZVVIuuCtm4HBvYFbLgEa1QXGDgHWrEw6W8nAgQJe+ZhyAt8333zjoESJkogCTvXlH3vxMU1EYe/SfPwecNEfgX/+8agtmHKU6/yTgEnjFzgHUwCG1dLkB8oqB6yrXgzlW6HXDLeOLKYREmpILUXI2zUUScA0pIXciQIZpwAnQdW6Cnh7avo3jTtLEU4v+G9g9CBg1uvp3yY/t8ALH1MO43ft2tXPzUz7utFvnz8i4h3iYxpPocp536kdcNovKnD1+bttraWtCqDW77ZbYD4abAaXiqpmAr2wIXndtgAQmiykZshUscLS6Vn5oYlOjBOWxoGPqS497GqbzoghYBqmlDyIApmnwJL5wCV/AlYty4y2rfgS6PEUcPkZwHOPGWu3fv9dZrTNT63wwsd0x44danUJP7Ur0+ry1VdfYerUDPjlmWkdE6U9G77md9cRnP3bo2Fgqq2lmzckAqYhC2k1PVEpYDE1WzsVUKqh/RDAhkEm6+wWTK2gqp9ZTqAudlbViHJNegmYmsSQW1EgUxV4azJw5q+B/Xszp4U/HAA4oeDBW4BbLweG9gcWfZw57cuElnBliVGjRmVCU3zbBrpJcHe4eIf4mMZTqPLeP99pG8789TFcdbbxA5u+pvQtpbWURzQwi24xNdLpIf0gjAb8Tzn6oc6u5YFhf5N/ZwBg+V4N+ycApiw9BL0GkKpnDckmd4NgXczWXaP6wX+jtV/WMQ1KJDeiQGYoMLSfsbB9ZrQmvBXl84zlWM7+L2BwH2Mr1OPHw+PIkzsFvPAxJTRxvU05UqcA4X/06NFxC+Afe0IBr3JUnQLfbge6P7Md5/7uCDj7/tI/A1yF5LyTAFpLeUQDs6qrtduS7V0AnOYSrf0Cpk4VlHiiQBopwKFvLmqfqcfWTcCrfYGalwIlDwCv9AS4I5Yc7hUgxHTq1Ml9QlMKAVOTGCm6dQqm4mOaog5wmO1H7wLPtAauPge47cqDKHxwpZoIdeWZxqiPtpYyu2hg5rCoyo0WsMqGTbJSYSarrMsaRWu/gKlLISW6KJAuCjySYyxony71TbSes6YDjR82ZrlyZQLuNCWHcwW88DEVMHWud6IxnYJpovlLusQV4OTT4S8DD98GnPNbwzd+9/eA3vmpfSNj+SiztZSlRQOzxGuS2pTahSA0TJ84lMZqv4BpavtRchcFqkyBXTuNHUi4mH02HCuWAi88A1zxF6BLB2BgL4AayJF6BQRMU6+xUzAVH9PU94Uu4b2ZhmvRZacD9W4H3p+l3xhXDaZrVgAP3hzyLdWx0g1Mdb29uvKzeumll0ZkJ2AaIYkEiAKZo8DypcA15wHc/i5bjgP7jclS3BKQ66K+2BlY/Em2tN59O8XH1L1mVZHCKZgSdsTHNHU99M1aYFBv40c/t4TmNqOHDtqX9//bOw8wqarzD48VFKmaZC0JEImF6B/UaGyAJTYSJUKwRQUlxRpM0NhDWwENYkBEQAQRFgVFEKkqRdQVlSLYQUECCtZFUUoEf//nzN27O3NnZudO3Vve+zzj3HLK973fgD/O/c45tjA1T9eurs4ttUunEmb286B/r1mzRk2bNk1wE2GagIQbEAgWgednSAftIX2yPlh+ufHm5fnSLddIB+8j3XOn9PhoaedONzXDU4YcU3/E2q0wJce0MPE06yv/o5t0xI+lrh0kMxEz3RErTFOVNcLM/GMibIfx2YyWJstvR5iG7deAv6EkMP4h6djm0g8/hNJ9mRwwM4vfLDfV9fdW7u2qd8PJwuk1OaZOIt68ditMvWm9P6167y1rR73fnWilCA0bKGWyCogbYWpGTRs2bKhTTjlFvXr1CvTnhhtuiPrZrFmz6EjpmDFjkv4wEKZJsXATAsEjYF5pmzyosB8zp0hXXWRNUii9WZozLexEcvefHNPcGaZrwa0wJcc0Hcn0z6dNkq67TDqkkfTXi6Qli9LXSVbCjTC165m4mdHDIH/uu+++6OiweYVf04EwrYkOzyAQMAI3/lm67bqAOZWlO28tsyZLHdtM+tffpQcHSl98nmVjPq5Gjqk/gudWmJJjml08VyyVBva21ho96VBrp7nsWqqulYkwra7FGcKU3wAEQkRgy3fSpb+VHh4SIqfTuPr1JmuhfrPUyylHSP+6QXrt5TSVAvSYHFN/BNOtMCXH1H08TWrT5PHSXy+UzKYd3btKZnWPfB0I0+xIIkyz40YtCPiWwOqV1mz1+bN960LBDDeTpcyIcov60u3XW7P7g56XS45pwX5OeW3YrTDNa6cBbcy8mu9/u7VD3umtpQmjCuPo8uXL9dhjjxWm8QC3at7izJkzp6AeRgraOo1DAAIZEzACzORPffB+xlVDUcFsGTj8XumsY6TLz7UmS33wXihcz8pJckyzwpZRJbfClBzT5Fi3b7fejFxxvrUZx81XFf7vv7Vr12rUqAKp3uRuBuLujBkztGhRlom9LgkgTF2CohgEiklgcpnUcl/p283F7NV/fc14Srr6EqnZXtJNf5WefcZ/PtRkMTmmNdHxzjO3wpQc0/iYLXpR6nOTdPKh0u9OkMzfe8U6duzYoT59+mjLli3F6jIQ/QwbNkzr1q0rqC8I04LipXEIZE/A7DFv/rLmSE/gTTNZ6g7puObSP/5kjaiabQf9fpBj6o8IuhWm5JhaC94/OtzKpz+yxJrcuH5t7cR5ypQpWrhwYe107sNe33//fQ0fPrzgliNMC46YDiCQPYE7b0jcKi/71oJf8+sKacLD0sVnSW1bSv/8q7931iLH1B+/WbfC1B/eFMbKl+ZJd3S3/vFotgCdMbkw/WTS6ueff67evXvr448/zqRaKMtu375dQ4cO1dtvv11w/xGmBUdMBxDIjcCfO0uD78qtjTDWNv8jvPVa6ZCG1rqHEx8JIwWJHNPCx92tMA1bjummCmnUEOnCMyxB2u9W6fNPCx+PTHpYunSpBg4cqA8++CCTaqEq+9lnn+nhhx/W888/XxS/EaZFwUwnEMiewIb10rknSs88kX0bYa5pJkuZdVDPPlb6Y3trxu+HPplYRo6pP365boVpWHJM58+Rbr5aOupA65W92XrZy4cZBRwyZIjMbkdlZWWaOXMmn5kzoyOkhke/fv1UXl5etBAiTIuGmo4gkD2BZa9JrQ+QVizJvg1qWq8Pr/mj9NM9pb9cID3n8clS5Jj641frVpgGOcf0i8+sfwCe385Ko7m3t7T5G3/Ez7bSjJrOnj1br776Kp9XX9W4ceP07rvv6vvvv7cRFeUbYVoUzHQCgdwJzJoi/WxP6bONubcV9hbMTjIDbpd+fbDUrZM0YpD01Rfeo0KOqfdikswit8I0WV2/33tuuvT3btIvfyT9+Q+SSaHhgEAuBBCmudCjLgSKTGDMUGsHpCJ3G9juTA5c2SjpknMks9XhP6+SFr8SLHfJMS18PN0K06DkmG78WBrcz1o15MxjJLOCyPf/KzxneggHAYRpOOKMlwEi0O82qVvHADnkEVdenGtNljq0kXTZudKksbVvGDmmtR8DNxa4FaZ+zzGdOcWaSHhYY+n6y6XFxUs7dBMGygSEAMI0IIHEjXAR+FsX6a5bwuVzsbxdu1oa9m/pnOOki8+WBtwhfbiyWL3H90OOaTwPr165FaZ+zDFd95E0sJdkRkbPO9maZe/VOGBXMAggTIMRR7wIGQHzCvqCM6xt/ELmelHdnf6ktbPUgbtVTpaaXtTuRY5pcXln25tbYZpt+7VRb9ok6zff+kBrVzWziQUHBIpBAGFaDMr0AYECEHjvLenEX0iL2LikAHTjmzSrIfS/XTqhhdT5dGnEfVLFl/FlvHpFjmnhI+NWmHo9x3TNKqn/bdKpR1prj45/qPDs6AECTgIIUycRriHgIwIL5lhLH33E2tBFiVrFV1LZQ9ZkKSNSzVqNSxYVrmtyTAvHNp8tuxWmXs0xNXvUX/F76fgWktltbtW7+aRDWxDIjADCNDNelIaA5wg8Pkb6VVNp21bPmRZogxY+L91yjXRYE6nzb6QnHs2/u+SY5p9pIVp0K0y9lGO68h2p943WahRdzpOeHFcIMrQJgcwJIEwzZ0YNCHiOwH9KrVdvnjMsBAZ99KE1Weq3x1vL59x9h7R6VX4cJ8c0PxwL3YpbYVpoO9y0b7bmNTugmdf1ZotQszMaBwS8RABh6qVoYAsEciBgRu/M3vActUPghx+sbWOvvlgq2UX664WSF7ZiJMe08L8Ht8K0tnJM31ku3fE3a79687tke+PC/yboIXsCCNPs2VETAp4isH271LWDNGqwp8wKpTHLF0tmvdkTD7GW2Rn5H2nTV5mjqI0c0y+//FLjx4/XVVddpdatW8ukE4Tx07JlS3Xt2lUDBw7U+vXrawyeW2Fa7BxTM3npgt9YS58N6sOucTUGkYeeIYAw9UwoMAQCuRMwa3D+prU0b1bubdFC7gTMzH0jDsx6qMc1t3JSl77qvt1i55j26tVLTZo0UZs2bdS/f38tWlTAmV3uMdRKSTO6OXToUHXq1El169aVYZPqcCtMi5Fjav5RZHYwM8s83XCFZLYM5YCAnwggTP0ULWyFgAsCr74kmd2L3l7uojBFikZg4XPWLP6W+1qjWG4mmxQzx9QIr5KSEj311FNFY+KXjl5//XUdc8wxKcWpW2FaKH9NGskjw6Tz20rnt7Nynr/eVKjeaBcChSWAMC0sX1qHQK0QeHqidHgT6csvaqV7Oq2BwJoPrL3F2x8vtTlcuvtOydwr1OE2x9SMlC5evLhQZgSi3f322y+pH26Fab5zTJe8Iv39SumYn1mj8WalCA4I+J0AwtTvEcR+CKQgMGKQZGaKc3iTwM6d1iSUqy6S9jeTpS6S5s6Mt7VYOaYm9/GUU06J75yrBAKGkWHlPNwK03zkmJpc8ocGW3+2TYrI6KHS9m1Oi7iGgH8JIEz9Gzssh0BaAmadwusvT1uMArVM4I3XraV7TjpUOuNoS3h8XaHopKOePXvmZJ2bEVOEqTvEuQrTXHJMF70oXXupte5orx7Say+5s5lSEPAbAYSp3yKGvRDIkIBZvsisc8rhfQJffSGNG2lNljKbJhx2wFPq+69ncjI8Y2G6rkwdk87E76iydTmZEq1c3ieiSJ/y3BvKewvlKo3xu+OEDQk95CpMExpMc+O7b6UHB0pnHi1deb702Og0FXgMgQAQQJgGIIi4AIGaCHz+qXTeSdK0STWV4pnXCLzwnDW7+pc/sjZPeHJ8dhZmJ0wTRWhUUHYuU6Jcy8wubwrTDSrrHFGVGK0U56WvxPuWqzB1m2P60jzpLxdIp7eWBtwhLV8SbwdXEAgyAYRpkKOLbxCoJPDmUumoA6XXvThQRZRSEjA5pi8uWKehd0vtfy0d20y651+S2W3K7RErTJe9JpntJ51H3Kv8qChLFKZKdd/ZWCCuHUK10qdchWlNOaabKqT7+0unHCFdc4k05bFAgMQJCGRMAGGaMTIqQMCfBJ59RvrpHtK6j/xpfxitjl3HdMcOa9TbTJI6YDfpqovdrVcbK0wvP08qiUhm1YbYI1thumFCx+rF96tGU5OIuldKFYmUyvy7yDlimrwN81o9Rhw7RXH02mrPEszVmwA4Rzmr/HS2kcSWmsqaZ7kK02Q5pvPnSFecb21nO/gu6f23q6zgBAKhJIAwDWXYcTqsBB4dIbX7pfT992El4C+/U61jaiZL3XVL9c5SZrevVOtWxgrTg/aQjj/YWkrMTK6yDzfCNOFVfozYNO3ECs6o2KwSqvHPYsuphjZMOfvVummvY+eOcddWnqolgqvEaKxgtZ2r+nYKZiuntKputJxVJrrTVZI82FyFqW3KF59JZiemkw6R/vEnadZU+wnfEIAAwpTfAARCRsC8CjYTKTj8T+DLz6VxI6SLzpIOaSjddp1kXtfHHrYw7fUP6ZBG1gLsLfeTOp1WXSpRmFaPQFZvR1o5QllZLVY4Rm/FisK40Ukj9qpHP2OFaU1tRMVtpTgs79NRZa+UqWP0OlaMVgrJGBFc7VXiWZxgNjamrFfZrkOc5ipMRwz5UC32LddZx22WWc7N7NTGAQEIxBNAmMbz4AoCoSBgRmlKbw6Fq752MpN1TBc8Wz1Z6qIzpcllluu2MDVi1IyWm52Bzj1JOnB36ZEHrTKJwrRaSErWyKI9emnVqBRuMbPYLQFbXa9KdDoEYLUwTdNGldA1/RtR7Py2Q+toxxab0frVAtsaGTVtWDZGR2GTzLy3W3WO5pr72QjTjR9L99xp5Qd3OX+96kTOTLoWalW/nEAg5AQQpiH/AeB+OAl8u1m68EzpsYfD6b9fvI7NMXVr8+pV0v0DpHOOk45rLt32t690dZdFalrXEqVGmJqPEak/ryeZJapqFqaSnccZ+9q7SnimMsy8pu9cpnLzGj5GAFYLU+sVf+yz+KaM4IwdKTXlO6psQmkNy00lE9HxrVp2l8eN4saXsK7iRlcrC2QiTGdOsUayL/2tNPZBaeMnUrIc02R9cw8CYSaAMA1z9PE91AQ+eM/KcTPLEnF4k0CqHFM31u743prk9MffblbJLtLB+0inHhkvTo/8iXWdVphKigq1yglM0f4d+aEJzytHWu1JT7bNscLUOSrpbCMqIh25pSbXtFogW0K0+toaPa2+tnuN+Y7a7VxL1apXLZKTC9x0wtRMLDS5v21bSn3/KS1aGNMvpxCAgCsCCFNXmCgEgWASMOsl/mxPZgIHM7qWVy+9sFYH7PqDjjpIaraX1KK+dEILa21b80rfjKTecv3K6i1Jo6/Aq1/JV7OxxJoZBbXXMrWEpP26PLFOnAitbMh5r8Y2KkVkldB0iOFok45X9ukX73eKWdvDSv/s9ARHfqkplUqYjhr6qU5uuUF/+oM0cay06Su7zfhvt+uYxtfiCgLhIoAwDVe88RYCCQSeHCcd87PUs7oTKnCjaAQyyTFNZdQFZ36rXzTcEn19/7sTrZn8hzW21ss0r/RPb2XE6Q61ObFTqia4X0kgVpiuWSWZLX/PPEa6vXuF7uo1PS0nMzJt0jPMNwcEIJCcAMI0ORfuQiBUBIYOkC74Tahc9oWz2eSYOh1rttcP+lWzL6omPRkhenwL6cgSa5a+WdfUCNNDfjzPWZVrBwEjTEvveEcd2kjXX2atK7t1q7R69WqNHTvWUTrxkhzTRCbcgYCTAMLUSYRrCISUwO1/k265JqTOe9TtXHJMjUsmz/HA3X5Q872366DdFf20PlD6fVvp792kCQ9LZiJcXI6pR1l4waxfHXG7/v6XD/XeW/HWuBWm8bW4ggAEkhFAmCajwj0IhJDAzp3WDjQP/SeEzgfU5W4dpYvO/lZXX75Iy19P7STCNDWb2Cexr/Jj77sVpuSYxlLjHALJCSBMk3PhLgRCSeDjddIZR0mzpoTSfc85nY8cU3sd05qcQ5jWRKf6Wa7C1HAmx7SaJ2cQSEYAYZqMCvcgEGICSxZJZnKMcwehECOpNdfzkWOKMM1f+HIVpuSY5i8WtBRcAgjT4MYWzyCQNYEZky1xumF91k1QMQ8Ecs0xNSYgTPMQiMomchWm+bOEliAQXAII0+DGFs8gkBOBh++X2v86pyao7AEC+Ram3z/9gn6o2JyVZzumLdQPm7KrqykLpIpvMu93zEwpS3udneUqTMkxdRLlGgKJBBCmiUy4AwEIVBIwu9hcdxk4aouAF3NMt/zmav3v0fRrdiZjtvWs6/T9uJnJHqW/1+FGacwz6cs5S3S4TTLiNA9HrsKUHNM8BIEmAk8AYRr4EOMgBHIjcO2l0n19c2uD2tkR8FqO6c6PPtHmOsdryxmZryv2w0cb9F29k7Xt7Oszh7HmEylynNT60szqrtkgRdpKra/MrF6K0rkKU3JMU4DlNgRiCCBMY2BwCgEIJBKo+FI672Rp8vjEZ9wpLAGv5Zhu7/tQVJgacWpEaibH/+56OCpMjTg1IjWjo+dIS5gacWpEqtvjvkmWMDXi1IjUHI9chWmO3VMdAqEggDANRZhxEgK5EXhnhXT0QdLL7KSYG8haqJ1NjunON1Zqx8KlCZ/vDjm/Sphuu/G+hOfROi8t184XlyV8trT8Q5Uw3f7XuxKemzo/vLhMWrAk8dOsQ7Uw7don8fmoadL0cmmBqR/zaXZBtTDt2j/+mV0ug/zTXIUpOaa18AeALn1HAGHqu5BhMARqh8C82dbOQR++Xzv9h7HX2soxNZObtnbrUyVCzQhpus+3P/5NNPfUTG7aftPgKhFqRkjTfbbsf5aVe2omN3W/t1qEmhHSdJ+Gp0kPPCl1H1ItQs0IabpPw3MkM6KawZGrMCXHNAPYFA0tAYRpaEOP4xDInIDZwrJtS+m7LCdWZ95juGvUdo7pjheW6LtjL0srSo2Idc7UN6OnW4/vmlaUbv/LXYkz9ecvkVr9Mb0o7dI7fqb+/GVSqyvTi9Iu/bKaqZ+rMCXHNNx/nvHeHQGEqTtOlIIABCoJDOojXfF7cBSDgFdyTLf1uC+pODWjpEa81nSkGj01o6RGvNZ4pBo9NaOkRrymOlKNnppRUiNeszxyFaZZdks1CISKAMI0VOHGWQjkh8BNf5X6/jM/bdFKYQlkk2PqtMgsD5XqVb5zpNRZ1ywPlepVfto1Tc3yUKle5de0pqlZHirVq/wMckqdvuQqTMkxdRLlGgKJBBCmiUy4AwEIpCGwbat00VnSoyPSFORxTgRqK8fUaXTs63yzjqkZKbWFaro1TWNf55t1TM1IqS1U065p2u6qamFqzs1IqS1Ua1rTtN3fqoWpOTcjpbZQzTCvNJZFrsKUHNNYmpxDIDkBhGlyLtyFAATSEPjoQ+nkQ6Vnn0lTkMdZE6jtHFNjuL12qT25ydwzo6T26/3vjku9A4O9dmnV5CZTN2Zy1NYTrkjNxl671IhRW4TGTo5KtaapvXapEaP2wvpmlNR+vZ/Dmqa5ClNyTFOHmycQsAkgTG0SfEMAAhkTWLRQalpHWpEmVTDjhqkQJeCFHFMjQM0n2St7e3JUqjVNTX5p0slNUjS/1Iym7ly+Mnm0TX6pc3KTXdKeHLUsyRIRPUdLqSY3LVtlTY4y31kcuQrTLLqkCgRCRwBhGrqQ4zAE8ktg6mPS0T+VPtuY33ZpLT8E3OSYmp6aN2+uxYsXJ3SaSnTGFjTrniY73Cykn1KYullIP1kZNwvpuymTxKFmzZoluSutXr1aY8eOTfos9iY5prE0OIdAcgII0+RcuAsBCGRA4MF7pc6nZ1CBoq4IFCvH1BgzYsQI7bfffpo0KbO1PV054vNCr7/+ulq0aKFevXol9cStMCXHNCk+bkIgjgDCNA4HFxCAQLYEev5DuvnqbGtTLxmBYuWY2n2PHz8+OnLapk0b9e3bV+baiKkwfh577DHdc8896tSpk+rWrasxY8bYmBK+3QpTckwT0HEDAgkEEKYJSLgBAQhkS+DKjtLwQdnWpp6TQLFyTJ39lpWVqUePHrroootk8irD+OncubO6d++ugQMHOvEkXLsVpgkVuQEBCCQQQJgmIOEGBCCQLYFPN0hnHC1NfTzbFqiXbwJuc0zz3W+Y2nMrTMkxDdOvAl+zJYAwzZYc9SAAgaQEli+WDm8imRn7HLkRyEeO6RtvvBHNH83NEmrXRGDFihUaPnx4TUWiz8gxTYuIAhAQwpQfAQQgkHcCc6ZJhzaSzFqnHNkTyEeO6bp16zRy5MjsjaBmWgLvvvuuHn88/WsCckzToqQABBCm/AYgAIHCEBj7oHTOcZLZJYojOwINGzascdKNm1Y3b96su+++201RymRJ4OWXX9bs2bOzrE01CEAglgAjprE0OIcABHN2MyQAACAASURBVPJK4O47pGsvzWuTNJYFgcGDB+vTTz/NoiZV3BCYOHGizOv8dAc5pukI8RwCYsSUHwEEIFBYAtddJg3qU9g+gty6ef2b6zFr1iyZfFWO/BPYunWrevfurS1btqRt/L777pNJzzAClQMCEEhOgBHT5Fy4CwEI5InAN19LHdpIEx7OU4MhaqZDhw5KtdtQJhg2btwYXZMzkzqUdUfATGiaNm2aq8Jr1qyREaccEIBAagII09RseAIBCOSJwMp3rW1L583KU4MhaaZnz54yeab5OGbMmKGnn346H03RRiWBjz76SP369SNNgl8EBPJIAGGaR5g0BQEIpCaw8HnpwN2kd9Kn4qVuJGRPzAhbPl7lG2w7duzQhAkTop/nn38+mhNp8iL5ZMfAjJSaLUrffPNNV79KE0uzUQGv8V3holCICSBMQxx8XIdAsQlMGiu1OVz66oti9+zv/owIytexZMkSjR49WpMnT+aTA4Nnn302o5FS8kvz9QumnaATQJgGPcL4BwGPERjSX+rawWNGedgcW9CYETcO/xIwI98mNYMDAhComQDCtGY+PIUABApA4J9XSX1uKkDDAWzSCFKTZ5rPUdMAYvK0S7y+93R4MM5jBBCmHgsI5kAgDAR2fC9dfLY0anAYvM3dR0ZLc2dYWy2YkdJGjRqpe/futWUC/ULAVwQQpr4KF8ZCIDgE1q+VTj5Mmv5kcHwqpCdm1M0sHZWvyVCFtJW2qwnYI95TpkypvskZBCCQkgDCNCUaHkAAAoUmsLhcalZXMt8cNRMYM2ZMdHF2883hDwJ2+gUj3v6IF1Z6gwDC1BtxwAoIhJbAM09KRx0kmRFUjpoJ2Iuzm9FT8hZrZlXbT82re7PLE6K0tiNB/34jgDD1W8SwFwIBJPDQYOkPp0km95QjPQGzHqbJW+S1fnpWxS4xderUaJdmZLtVq1bEqNgBoD/fE0CY+j6EOACBYBDo1UMys/U50hMwI6dG9JjDCKCuXbtGBZARqgsWLEh5bo/emTKpzu2R2NhR2dhzU8/UN0eq83R22II6FzuMTenssO0z/aWyyfhRkx02p1gGznPbDrMclBklNc/NYfsZveA/EICAKwIIU1eYKAQBCBSDQLdO0pB+xegpOH106NAhKoaMRyan0Qgj853s3F5H05RJdd6uXbsoHPOd7NwWX6ZQqvNkfTttMvVzscPYZurXZIdtn7PvWPvS2WFzSsUj1g4zwcn8g8EWplHj+A8EIJARAYRpRrgoDAEIFJLAl59LZx4jTRxbyF6C1bYZ0bNzT43gMkLJHtFzntsTp8z9VOf2skbmO9m5qWfqmyPVuenf2bfTJlM/FzuMbenssO1z9h1rXzo7bE6peJj75h8HHBCAQH4IIEzzw5FWIACBPBF4e7l0+L7SC8/lqUGagQAEIAAB3xBAmPomVBgKgfAQmDtTOqSh9P7b4fEZTyEAAQhAQEKY8iuAAAQ8SaDsIensY6WvN3nSPIyCAAQgAIECEECYFgAqTUIAAvkhcM+/pGv+mJ+2aAUCEIAABLxPAGHq/RhhIQRCTeD6y6X+t4caAc5DAAIQCA0BhGloQo2jEPAngS3fSb9vK415wJ/2YzUEIAABCLgngDB1z4qSEIBALRFYvUo65mfSLGtTnVqygm4hAAEIQKDQBBCmhSZM+xCAQF4IlC+QDthVWvZaXpqjEQhAAAIQ8CABhKkHg4JJEIBAcgJPTZBOPkza8HHy59yFAAQgAAF/E0CY+jt+WA+B0BEYOkDqcl7o3MZhCEAAAqEggDANRZhxEgLBInDz1dKdNwTLJ7yBAAQgAAEW2Oc3AAEI+JTAJedID9zjU+MxGwIQgAAEkhJgxDQpFm5CAAJeJ7DxY6nN4dLk8V63FPsgAAEIQMAtAYSpW1KUgwAEPEfAzNBvtpf08nzPmYZBEIAABCCQBQGEaRbQqAIBCHiHgFnbtPWB0ofve8cmLIEABCAAgewIIEyz40YtCEDAQwRG3y91OlX67lsPGYUpEIAABCCQMQGEacbIqAABCHiRQO8bpR5/8qJl2AQBCEAAAm4JIEzdkqIcBCDgeQJ/+oP0756eN9MXBm6vqNCCc9ppdusWWnYLa3P5ImgYCYEAEECYBiCIuAABCFgEvq6QzvqVNG4ERJIR+L5ik1b3ultLTjlXcyNNop+FjZvrsykz4oqXd7lQ0/bdXc80imh6412s75820uflL8aV4wICEIBAvgkgTPNNlPYgAIFaJfD+21LL/aTnpteqGZ7q3AjSlTfcphcaNa8SpLYwNd/m/tY1a/XGbf/QtJK9o0LUiFLnZ/pBDTzlF8ZAAALBI4AwDV5M8QgCoSfwwrPSLxpIby4NPQpVzH9JLzdrrXm77BsnSp3XZtR0x9atmn/lZXqkyd4a32QvTWhcRxMb76knG++uKY13iwrVN3itz48KAhAoIAGEaQHh0jQEIFB7BB4bbb3W//zT2rOhtnte2f3WODEaO0rqPP9q/ktV5i7u21Ojm9RL+ln0j+urynECAQhAIN8EEKb5Jkp7EICAZwiYiVBXX+wZc4pmiHl1v+L3l0VFqXNkNNX15mUr4uxbWfZoVJiO2XefOIFafmP3uHJcQAACEMgnAYRpPmnSFgQg4DkCf+si9e7hObMKZpARpa+1bud6pNSMnL7ctFVSezaWv6xJrVvGCdOF1/wlaVluQgACEMgHAYRpPijSBgQg4FkC//ufdH47acQgz5qYN8NiRWmqkVH7FX7s89U9B6S0YcvGDZrd8VzZI6fPnNY2ZVkeQAACEMiVAMI0V4LUhwAEPE/gv2ukXzWVnn7c86bmZOCKDpdmNFJqROoLDZvJCNp0R/mNN0RHTp+/+MJ0RXkOAQhAIGsCCNOs0VERAhDwE4HXXpL230V6NaBLcf73vgczyim1R06da5gmi+nO/23XV6tWaurZv9HL11+XrAj3IAABCOSFAMI0LxhpBAIQ8AOBpydKJx0qffShH6x1b6NZg9QWmpl8mxHWrZsqNOn37TW23QkaefQRuv/QZrr3Zz/RgB83UmmTeurdsK7+1cD6lNavo8U92VrLfWQoCQEIZEoAYZopMcpDAAK+JjD0bunyc6Vt23ztRpzxS9r9Lu06pbE5pUa8ljdrVfUKf8ZZbXVfgz2qBKgRoj0b7pVwfe9eu+uT+fPj+uYCAhCAQD4JIEzzSZO2IAABXxC45Rrpn1f5wtS0Rn41/8WMR0tNXmns8lBL+tyh0ftENGKfXTSgfrxAtUdLzfewXXfRx7HCdF2ZOkYiiiT9NNcJna/V0Hkb0vqQrMCGCR0ViXRU2bpkT7kHAQgElQDCNKiRxS8IQKBGAn9sLw3qW2MRXzx8p8u1ccLUOTLqvH6hUbwoNU5+PO+5qDA14nRM/V10f/3d1LdBneiIqT1y+u+999CISCR+xLRSmJ5252TNnTc37jNjwkB1O7VEkUiJrp1WkTFLhGnGyKgAgUAQQJgGIow4AQEIZErA7AjVtqU04eFMa3qrvBn9dJtX6hwptT3ZuX27xjTYtUqcGoFqPvfW3z0qTns1qKuhu+0SFabbK2JEZqUw7Tghxajo5nLd3jqiyBmjtNruzOU3wtQlKIpBIGAEEKYBCyjuQAAC7gm8uUxqvrc0b7b7Ol4qaV7H26LUOTLqvH6tVduqnNJkPsxqf2qcMDUjp0acDt9nVw3aa3eN3MUSpnF10wlTSeV3mlf9pSqvrGgJzupruz3n/Sph+nq5Bl58uEoiEZUc0V49JryjKmm8apTaRyJKJoxXjzxNkZLEfuz++IYABLxJAGHqzbhgFQQgUCQCz02XWh0gvRO/I2eRes+tG7O/vS1Ma/pe2f3WGkWpsWLpXT3jhKk9avrQPrvq/jq7R0dLzav8uCOtMF2tUWdEFGk9UEsrKzoFqN2e8751XaKSkhKd9vdRmjFvhspubR8VqCf0W6qt0YobVNY5okjnMsWP2Vr9HnWP3avdC98QgIDXCTj+lvG6udgHAQhAIP8ERg+VOp4iffVF/tsudIvOkdHYa7PVaMX8l1yZ8MkLc6PC1B4pNcL04fq76f5999IDdS1hWta0aXxbNQnTzas1t58lJNuPrH6R7xSgdoPO+9Z1RLF1TdnVI9vHTYqqeKpb3HW0vVWjdFrkKA1cZrfONwQg4BcCCFO/RAo7IQCBghLoc5N03WUF7aIgjdsL68eOmL7aqq0+GTMh2t+0iy/U+hfT7yrww44deqTxHnGjpkMb19HgJntpaL09oyOm09q1i/ehUpgmn5UfUaTkcF0yZGn1q3dJTgFqN+i8b1130+TP7RKV32uslQAumVQ5Rvr5ZHVzvM5fOuiouFFaRwtcQgACHiaAMPVwcDANAhAoLoE/d5ZKby5un/nozeSaGoFqdnEyi+3HHk8edpjM5KVBB/xYk88/T6tnTI99HHc+63enVwnT4Y3rRkWpEab3N6gTzTFNJUxjZ+XPmFCqji0iOvzigSp3isqMhWmyHNFylUYiOmqQ/Zq+QpOviH2dv1QDW8c+j3ORCwhAwOMEEKYeDxDmQQACxSPw3bfS2cdKo4YUr89ce/po8qSUTXy5ZIker99AgxvUi4pTI1DN598/aaKJZ5+p9x5/LK7usgF9osL0oSbVotQI0yGN60ZHTOd06BBXXqle5a8p0yUlEUWOL1X55vgqzpFR+6nzvvPaLidZwvS0mPSAimnXKhKpHF1dNlBH8Rq/GhdnEPAZAYSpzwKGuRCAQGEJfPi+9MsfSdOfLGw/+Wp98i+a6o2beyRt7q3+/TWxQUONq1+/Spj2brhX1bkRqXfv11Blp7bRGw8+oFVlj+qhertWjZRGRem+e0evR+yyS+J2pKmEqaStr5TqBDOT/rKyuKWiLMF5rWZUTa23TF/az6x5Wj1CmqqcKl/lx62NunWuekQi6vZUhaKv8bNYniopQG5CAAJFJ4AwLTpyOoQABLxO4OV5Uov60uJXvG3p0gGlmti4nqaX7JfU0OdOPS06YmpGTYc4Rk3t0dPY78GNG0TzSY0gdX4e3H3XjISptFXlfU6ILrBflQ8qyRrddExMstc7TRCmEXV8tHriVHWbztzTrZp7a4kiV5eq9IyI2o+OrZMUDTchAAGPEkCYejQwmAUBCNQugcfHSGceI62PT9msXaNiet++aZPGNy+JCtNnGu2jdZOfiHkqfbduXZUoNcJ0QoMG6l35Kt+IUefI6ZB61ut6syTUA3vvoSGVI6W2QH2wzu4ZClNJtuAsuUST7a1FP5+ha6Ov+btp6FNzNfepoep2anNdcpnZgtQ5YnqCTji+uTr2KdOMeZM19M+nqSRSoksmJArPrfNujy4tVRJpr1Gr4lBwAQEI+IgAwtRHwcJUCECguAT+3VO6sqO0Y0dx+3XT24aXXtDoJntpUuN6MsJ0ztFHxlX74OGH44SpEadDU4yaDq1jbTdqRKn9MUtE2aLUfD+w1+76eP78uD5S5pjGlNr64u06yrzSv3pG1ez8re+Wqce58Yvmm1f/icK0VOVrZsSUvUSlMxNFabS7rXN1uxG852S+y1SMuZxCAAK1TABhWssBoHsIQMDbBLp3lW67zns2mhFTI0yfarxPVJgacbrprTerDH3xwouiwtTkmBpRGh01rd9AfRtU55j2q19Xw/eoXjzfiFJ7hydzPqzOblUjp0P32TNRmFb15oWTcpWWJN8FygvWYQMEIOCOAMLUHSdKQQACISXwww/W4vtD+nsPwNS2x+mpyhFTI0xf6mTNmt+5bZsmNmpcJUhtYWq+H6hvzdD/z951qkZH7VHSZN8P7rGbhjS2loxKGDH1EJKtz/ZQiT0z30N2YQoEIJAZAYRpZrwoDQEIhJDAJ+ukY5tJk8Z6y/mVEx7V05UjptMb19e0/RpGDVw3bVp0Nn6sILVHTh+tV0/371NHw/beQ8Pq7K5he+4mM7FpxO67aviuu1SJ1diRU/P8/kZ1tb3CMZXeAzhWTxuogXd202klER3Vp7xyq1IPGIYJEIBAVgQQpllhoxIEIBA2AktflUoi0sLnvOX5s22Or3qVb0ZN3+z9L7123fUJo6WjG9TT0MbW0k+xuaPJzoc02VvDShpr+EE/0kNN91fZsa00se3xWj17precl/TOMGtC1OF/HqV3HGumes5YDIIABNISQJimRUQBCEAAAhaBaZOkEw+RVr7jLSIrHxyqWUccqin7NdSMVi315EEHaVzDBhr9o8Ya1qSeHmp2gMa1bqknTm+rqb89U890PE8v3XqTlgwaqLdGDtf7E8Zry5dfyGxLygEBCECgNgkgTGuTPn1DAAK+I/DAPdJFZ0rfbPKd6RgMAQhAwPMEEKaeDxEGQgACXiNw67XSDVd4zSrsgQAEIOB/AghT/8cQDyAAgVogcOlvpQG310LHdAkBCEAgwAQQpgEOLq5BAAKFI1DxldTul9IjwwrXR7qW3377bT3++OO68847NWzYsFB/5s+fr3Hjxmnx4sXpsPEcAhDwMAGEqYeDg2kQgIC3Cbz7pvTzetLsqcW3c9q0aRo5cqSWL18uI1A//fTT0H/ee+89lZWVafz48dq2bVvxg0KPEIBAzgQQpjkjpAEIQCDMBJ6fIf3f/tIbrxePwpw5c6IjpcXr0V89zZ49WxMnTvSX0VgLAQhECSBM+SFAAAIQyJHAmAek806SNn6cY0Muqq9du1b33nuvtm7d6qJ0eIuMGTNGS5cuDS8APIeATwkgTH0aOMyGAAS8RaDPTdJfLii8TU888YReffXVwnfk8x4++OADDR8+3OdeYD4EwkcAYRq+mOMxBCBQIAJGmN55Q4Eal7Rjxw716dOH/EmXiIcMGaKNGze6LE0xCEDACwQQpl6IAjZAAAKBILB9m3TOcZJZhL8Qx7p166ITngrRdhDbnDJlCq/zgxhYfAo0AYRpoMOLcxCAQLEJrP1QOuLH0uSy/PdsZt8zqcc9V7OE1IIFC9xXoCQEIFDrBBCmtR4CDIAABIJGoHyBdPA+0svz8+vZihUrNHny5Pw2GuDWFi5cqLlz5wbYQ1yDQPAIIEyDF1M8ggAEPEBg4iPS6a2lD1fmzxiEaWYsEaaZ8aI0BLxAAGHqhShgAwQgEEgCA3tJf2wvffdtftxDmGbGEWGaGS9KQ8ALBBCmXogCNkAAAoEl0P0Kqcef8+MewjQzjgjTzHhRGgJeIIAw9UIUsAECEAg0gU6nSv/umbuLCNPMGCJMM+NFaQh4gQDC1AtRwAYIQCDQBD7bKB3XXBo3Mjc3EaaZ8UOYZsaL0hDwAgGEqReigA0QgEDgCbzxurT/LtJz07N3FWGaGTuEaWa8KA0BLxBAmHohCtgAAQiEgsAzT0gn/EJ6c1l27iJMM+OGMM2MF6Uh4AUCCFMvRAEbIACB0BAY9m/p/HbS559m7jLCNDNmCNPMeFEaAl4ggDD1QhSwAQIQCBWBW6+Vrr44c5cRppkxQ5hmxovSEPACAYSpF6KADRCAQOgIXPY7qfeNmbmNMM2MF8I0M16UhoAXCCBMvRAFbIAABEJHYPM30ilHSCMGuXcdYeqelSmJMM2MF6Uh4AUCCFMvRAEbIACBUBJY+Y508D7S0xPduY8wdcfJLoUwtUnwDQH/EECY+idWWAoBCASQwNyZ0pEl0qsvpncOYZqeUWwJhGksDc4h4A8CCFN/xAkrIQCBABN4ZJh01q+ktatrdhJhWjMf51OEqZMI1xDwPgGEqfdjhIUQgEAICPT9p9TlPGn7ttTOIkxTs0n2BGGajAr3IOBtAghTb8cH6yAAgRAR+MuF0s1Xp3YYYZqaTbInCNNkVLgHAW8TQJh6Oz5YBwEIhIjAjh1S+19L9/VN7jTCNDmXVHcRpqnIcB8C3iWAMPVubLAMAhAIIYH1a6UjfyI9NjrReYRpIpOa7iBMa6LDMwh4kwDC1JtxwSoIQCDEBF55Qfp5PWn+7HgICNN4HumuEKbpCPEcAt4jgDD1XkywCAIQgIAmjZXaHCa9u6IaBsK0moWbM4SpG0qUgYC3CCBMvRUPrIEABCBQReDe3lLn06WKL61bCNMqNK5OEKauMFEIAp4igDD1VDgwBgIQgEA8gRuukK6/zLqHMI1nk+4KYZqOEM8h4D0CCFPvxQSLIAABCMQR6HSadNctEsI0DkvaC4RpWkQUgIDnCCBMPRcSDIIABCAQT+DLL6Rf/1zqe8vHmjx5cvxDrlISQJimRMMDCHiWAMLUs6HBMAhAAALVBJYvlvbfVbrzpleqb3JWIwGEaY14eAgBTxJAmHoyLBgFAQhAIJHAA4PW6vD9tmgx2jQRTpI7CNMkULgFAY8TQJh6PECYBwEIQMAmYHJMr+myQu2Pl9b/177LdyoCCNNUZLgPAe8SQJh6NzZYBgEIQCCOgD356bbrpCs7SmYLU47UBBCmqdnwBAJeJYAw9WpksAsCEICAg4AtTM3ty86VbrveUcBx+ekG6fJzHTdDdIkwDVGwcTUwBBCmgQkljkAAAkEnECtMt26RTj1SGtI/udejh1rbmh7zs+TPw3AXYRqGKONj0AggTIMWUfyBAAQCSyBWmBonV70rtaiv6PalttNfV0idTpWa1pV+1VQ66iD7Sfi+Eabhizke+58AwtT/McQDCEAgJAScwtS4PW+WdFgTaeHz0tOTpMP3lVruJ517knR6K6n1gSGBk8RNhGkSKNyCgMcJIEw9HiDMgwAEIGATSCZMzbOxD0q/aCAduJvU7pfS+e2sjxGmrfa3a4fvG2Eavpjjsf8JIEz9H0M8gAAEQkIgmTB99hnplz+SmtaRDm0knXdSvDA9siQkcJK4iTBNAoVbEPA4AYSpxwOEeRCAAARsAk5h2r2rlUt6/MGWGD3ix9L/lcQLU3MvrAfCNKyRx28/E0CY+jl62A4BCISKQKww7dZJKolIhzSSzjymWoy2aGBNejKv802eqSkT1gNhGtbI47efCYT4ryw/hw3bIQCBMBKIFabG//+ulq671FoW6uB9pJMPU3RXqJ/uKZ34C0usGmE6depU9erVy9efZcuWZRxyhGnGyKgAgVongDCt9RBgAAQgAAF3BJzCNLbW4P7SiYdIB+5u5Zwe3kQ6utlH0RHTDh06qGfPnr7+tGrVSs2aNdOUKVNi3a7xHGFaIx4eQsCTBBCmngwLRkEAAhBIJFCTMLVLL37F2hXqgF136IDdvgnUq/z58+erYcOGrsUpwtT+VfANAf8QQJj6J1ZYCgEIhJyAG2FqEFVUVEQFXO8e1gL7O3cGB5x5pd+6dWtXDiFMXWGiEAQ8RQBh6qlwYAwEIACB1ATcClMzstiuXbvUDfn8SSTi7n9dCFOfBxrzQ0nA3Z/uUKLBaQhAAALeIoAwteKBMPXW7xJrIJBPAgjTfNKkLQhAAAIFJIAwteAiTAv4I6NpCNQyAYRpLQeA7iEAAQi4JYAwtUghTN3+YigHAf8RQJj6L2ZYDAEIhJQAwtQKPMI0pH8AcDsUBBCmoQgzTkIAAkEggDC1oogwDcKvGR8gkJwAwjQ5F+5CAAIQ8BwBhKkVEoSp536aGASBvBFAmOYNJQ1BAAIQKCyBnITpK6Uygi7Zp/SVLO1eV6aOfcozqLxBZZ0j6jhhQ2WdcpVGIsq0f4RpBsgpCgGfEUCY+ixgmAsBCISXQO7CtKPK1jn4GXEZiRWLjucpLy2RGclImDobQ5g6iXANgbATQJiG/ReA/xCAgG8IFESYGu+jo6lJRGuNZBCmNeLhIQQgkBUBhGlW2KgEAQhAoPgECiZMlVxklveJffUfK1ytkc7qtIBSVb3QT0gZiK2X7lV+pR0xKQfJXvPzKr/4vz16hECxCCBMi0WafiAAAQjkSKBwwlSKitDOZarK/oyK0kTBWS0Uk4jZJCOvlri126lJmLprzyBEmOb4Q6I6BDxMAGHq4eBgGgQgAIFYAoUUphsmdFTEFqaVeafVItSyIl68JgrJ6HNnzmmcWK1JmFqjsNUTo2I9jz9HmMbz4AoCQSKAMA1SNPEFAhAINIFiCdOoSI3Yo5wxSKMi076fKExjSlojsFWv5O3X+TUJ08pRW1PHFsixDcacI0xjYHAKgYARQJgGLKC4AwEIBJdAIYVp7GioJUxj80tjz2sQpnH5pZVi1PWIqRW3hL6dI7C8yg/uDxzPIGD+fEMBAhCAAAT8QaBwwjR+JDPliGkcJueIqfO6snCGwjS2C1ukOl/vM2IaS4lzCASLAMI0WPHEGwhAIMAECiZM48Rj6uWjokKx6jW7U4gmX5PUmvzk7lV+stAly1tFmCYjxT0IBIMAwjQYccQLCEAgBAQKIkxTLLBvCUr7tb2khAlRTmFaeV0lXG2Ba6UBWBOprDLVI6CxYjbJ5KeEPq0gI0xD8GPHxdASQJiGNvQ4DgEI+I1A7sI0Nle0+tw5+97mYonTGspV5ZTaI6KWuDTC0fqUqjxO+NYkTE2vzvrJd6RCmNoR4hsCwSOAMA1eTPEIAhAIKIGchGmAmCBMAxRMXIGAgwDC1AGESwhAAAJeJYAwtSKDMPXqLxS7IJA7AYRp7gxpAQIQgEBRCCBMLcwI06L83OgEArVCAGFaK9jpFAIQgEDmBBCmFjOEaea/HWpAwC8EEKZ+iRR2QgACoSeAMLV+AgjT0P9RAECACSBMAxxcXIMABIJFYNGiRRo/fnxap+bPn6927dqlLefXAm6F6Zw5czR9+nS/uondEAglAYRpKMOO0xCAgB8JrFq1So8++qgr0xs2bKhly5a5KuunQlOmTFGHDh1cmTxr1iyVl5e7KkshCEDAGwQQpt6IA1ZAAAIQSEtg06ZNGjhwYNpypsCYMWPUqFEjPfLII6qoqHBVx+uFpk6dqqZNm7oW3MZ3I+Y5IAAB/xBAmPonVlgKAQhAQMOHD9eaNWtckTAjpl26dIkudn/KKafIzx8jSLt37+5aZG/evFmlpaXasWOHK1YUggAEvEEAYeqNZ51F9gAAAp1JREFUOGAFBCAAAVcETJ7pxIkTXZWNLWTyTv36ySYl4bnnntOMGTNiEXAOAQj4gADC1AdBwkQIQAACsQRGjhypJUuWxN7iPIbA6tWrNWDAAH3zzTcxdzmFAAT8QABh6ocoYSMEIACBGALr16/XPffcIzN6yhFP4K233tJdd92lt99+O/4BVxCAgC8IIEx9ESaMhAAEIBBPYOPGjdGlo+69917169dPY8eODfXHpCkMGTJEZjT5gw8+iIfFFQQg4BsCCFPfhApDIQABCEAAAhCAQLAJIEyDHV+8gwAEIAABCEAAAr4hgDD1TagwFAIQgAAEIAABCASbAMI02PHFOwhAAAIQgAAEIOAbAghT34QKQyEAAQhAAAIQgECwCSBMgx1fvIMABCAAAQhAAAK+IYAw9U2oMBQCEIAABCAAAQgEmwDCNNjxxTsIQAACEIAABCDgGwIIU9+ECkMhAAEIQAACEIBAsAkgTIMdX7yDAAQgAAEIQAACviGAMPVNqDAUAhCAAAQgAAEIBJsAwjTY8cU7CEAAAhCAAAQg4BsCCFPfhApDIQABCEAAAhCAQLAJIEyDHV+8gwAEIAABCEAAAr4hgDD1TagwFAIQgAAEIAABCASbAMI02PHFOwhAAAIQgAAEIOAbAghT34QKQyEAAQhAAAIQgECwCSBMgx1fvIMABCAAAQhAAAK+IYAw9U2oMBQCEIAABCAAAQgEmwDCNNjxxTsIQAACEIAABCDgGwIIU9+ECkMhAAEIQAACEIBAsAkgTIMdX7yDAAQgAAEIQAACviGAMPVNqDAUAhCAAAQgAAEIBJsAwjTY8cU7CEAAAhCAAAQg4BsCCFPfhApDIQABCEAAAhCAQLAJIEyDHV+8gwAEIAABCEAAAr4h8P8k+Ew4myVP/gAAAABJRU5ErkJggg==;" vertex="1" parent="1">
          <mxGeometry x="320" y="140" width="474.03" height="330" as="geometry" />
        </mxCell>
        <mxCell id="sF9vPOQDG-tCfjTUJDpf-3" value="" style="rounded=1;whiteSpace=wrap;html=1;rotation=-90;" vertex="1" parent="1">
          <mxGeometry x="827.5" y="227.5" width="90" height="75" as="geometry" />
        </mxCell>
        <mxCell id="sF9vPOQDG-tCfjTUJDpf-4" value="Product page" style="rounded=1;whiteSpace=wrap;html=1;" vertex="1" parent="1">
          <mxGeometry x="842.5" y="262.5" width="60" height="40" as="geometry" />
        </mxCell>
        <mxCell id="sF9vPOQDG-tCfjTUJDpf-5" value="" style="rounded=1;whiteSpace=wrap;html=1;rotation=-90;" vertex="1" parent="1">
          <mxGeometry x="1000" y="110" width="90" height="95" as="geometry" />
        </mxCell>
        <mxCell id="sF9vPOQDG-tCfjTUJDpf-6" value="Reviews-v1" style="rounded=1;whiteSpace=wrap;html=1;" vertex="1" parent="1">
          <mxGeometry x="1010" y="155" width="75" height="40" as="geometry" />
        </mxCell>
        <mxCell id="sF9vPOQDG-tCfjTUJDpf-7" value="" style="rounded=1;whiteSpace=wrap;html=1;rotation=-90;" vertex="1" parent="1">
          <mxGeometry x="1000" y="227.5" width="90" height="95" as="geometry" />
        </mxCell>
        <mxCell id="sF9vPOQDG-tCfjTUJDpf-8" value="Reviews-v2" style="rounded=1;whiteSpace=wrap;html=1;" vertex="1" parent="1">
          <mxGeometry x="1010" y="272.5" width="75" height="40" as="geometry" />
        </mxCell>
        <mxCell id="sF9vPOQDG-tCfjTUJDpf-9" value="" style="rounded=1;whiteSpace=wrap;html=1;rotation=-90;" vertex="1" parent="1">
          <mxGeometry x="1000" y="360" width="90" height="95" as="geometry" />
        </mxCell>
        <mxCell id="sF9vPOQDG-tCfjTUJDpf-10" value="Reviews-v3" style="rounded=1;whiteSpace=wrap;html=1;" vertex="1" parent="1">
          <mxGeometry x="1010" y="405" width="75" height="40" as="geometry" />
        </mxCell>
        <mxCell id="sF9vPOQDG-tCfjTUJDpf-12" value="" style="rounded=1;whiteSpace=wrap;html=1;rotation=-90;" vertex="1" parent="1">
          <mxGeometry x="1002.5" y="530" width="90" height="75" as="geometry" />
        </mxCell>
        <mxCell id="sF9vPOQDG-tCfjTUJDpf-13" value="Product page" style="rounded=1;whiteSpace=wrap;html=1;" vertex="1" parent="1">
          <mxGeometry x="1017.5" y="565" width="60" height="40" as="geometry" />
        </mxCell>
        <mxCell id="sF9vPOQDG-tCfjTUJDpf-14" value="" style="rounded=1;whiteSpace=wrap;html=1;rotation=-90;" vertex="1" parent="1">
          <mxGeometry x="1260" y="296.25" width="90" height="75" as="geometry" />
        </mxCell>
        <mxCell id="sF9vPOQDG-tCfjTUJDpf-15" value="Product page" style="rounded=1;whiteSpace=wrap;html=1;" vertex="1" parent="1">
          <mxGeometry x="1275" y="333.75" width="60" height="40" as="geometry" />
        </mxCell>
      </root>
    </mxGraphModel>
  </diagram>
</mxfile>
